<?xml version="1.0" encoding="utf-8"?>
<!-- Generator: Adobe Illustrator 23.0.0, SVG Export Plug-In . SVG Version: 6.00 Build 0)  -->
<svg version="1.1" id="Layer_1" xmlns="http://www.w3.org/2000/svg" xmlns:xlink="http://www.w3.org/1999/xlink" x="0px" y="0px"
	 viewBox="0 0 1975.3 648" style="enable-background:new 0 0 1975.3 648;" xml:space="preserve">
<style type="text/css">
	.st0{fill:none;stroke:#FFFFFF;stroke-width:2;stroke-miterlimit:10;}
	.st1{fill:none;stroke:#FFFFFF;stroke-width:2;stroke-miterlimit:10;stroke-dasharray:9.18,9.18;}
	.st2{fill:none;stroke:#FFFFFF;stroke-width:2;stroke-miterlimit:10;stroke-dasharray:8.94,8.94;}
	.st3{fill:none;stroke:#FFFFFF;stroke-width:2;stroke-miterlimit:10;stroke-dasharray:8.72,8.72;}
	.st4{fill:none;stroke:#FFFFFF;stroke-width:2;stroke-miterlimit:10;stroke-dasharray:8.81,8.81;}
	.st5{fill:none;stroke:#FFFFFF;stroke-width:2;stroke-miterlimit:10;stroke-dasharray:8.96,8.96;}
	.st6{fill:none;stroke:#FFFFFF;stroke-width:2;stroke-miterlimit:10;stroke-dasharray:9,9;}
	.st7{fill:#FFFFFF;}
	.st8{fill:#010101;}
	.st9{fill:#F8D70A;}
	.st10{opacity:0.13;}
	.st11{opacity:0.93;}
</style>
<path class="st0" d="M1134.2,183.8l4-1.4"/>
<path class="st1" d="M1146.4,179.7c11.9-3.8,25.2-7.3,40.4-7.8c53-1.8,198.1,119.5,256.2,12.4"/>
<path class="st0" d="M1445,180.4c0.6-1.2,1.2-2.5,1.8-3.8"/>
<path class="st0" d="M622.9,181.3l4.1,0.9"/>
<path class="st2" d="M635.2,183.9c109.5,23.6,216.4,55.3,362.1,42.9"/>
<path class="st0" d="M1001.6,226.5l4.2-0.4"/>
<path class="st0" d="M215.6,207.8c0.9-0.7,1.7-1.3,2.6-2"/>
<path class="st3" d="M236.7,195.5c59.5-37.2,156.8-35,204.1-34.6"/>
<path class="st0" d="M444.9,160.9h4.2"/>
<path class="st0" d="M88.7,545c-0.4-1.4-0.9-2.7-1.3-4.1"/>
<path class="st4" d="M85.1,533c-43-145.4-8.5-220.2,53.3-270.2"/>
<path class="st0" d="M141.6,260.2c1.1-0.9,2.2-1.7,3.4-2.6"/>
<path class="st0" d="M1514.5,511.9c-1.4,0.2-2.8,0.3-4.2,0.4"/>
<path class="st5" d="M1501.9,513.1c-274.7,22.2-936,14.9-1159.4,11.5c-39.6-0.6-72.6,0-100.9,15.9"/>
<path class="st0" d="M238,542.6c-1.2,0.7-2.4,1.5-3.6,2.3"/>
<path class="st0" d="M1768.3,142.3c1.4,0.1,2.8,0.1,4.2,0.2"/>
<path class="st6" d="M1781,143.1c79.6,6.4,153.8,43,120,152.3c-15.8,51.1-73.9,125-134.8,170.1"/>
<path class="st0" d="M1762.8,468c-1.1,0.8-2.3,1.7-3.4,2.5"/>
<path class="st7" d="M1090.4,194.1c-4.2-9.4-13.6-15.4-24-15.3c-14.5,0-24.6,10.6-25.4,23.5c-1.1,18.5,12.6,28.9,25.4,28.9
	c8.7,0,16.9-4.3,21.8-11.6C1092.9,212.3,1093,200.6,1090.4,194.1z"/>
<path class="st8" d="M1066.5,231.7c-7.1,0-13.8-3-18.6-8.1c-3.6-3.8-7.8-10.6-7.2-21.2c0.3-6.4,3.1-12.4,7.7-16.9
	c4.9-4.6,11.4-7.1,18.1-7c10.5-0.1,20,6,24.3,15.5l0,0c2.7,6.7,2.6,18.5-2.2,25.9C1083.6,227.2,1075.3,231.7,1066.5,231.7z
	 M1066.5,179.3c-13.7,0-24.2,9.7-25,23.1c-0.6,10.4,3.4,16.9,6.9,20.6c4.7,5,11.2,7.8,18,7.9c8.6,0,16.6-4.3,21.4-11.4
	c4.5-6.9,4.8-18.6,2.2-25.1C1085.8,185,1076.6,179.1,1066.5,179.3L1066.5,179.3z"/>
<path class="st7" d="M1090.9,192.1c2.9-2.6,6-5.1,9.1-7.4c-2.7-0.4-5.3-0.5-8-0.7c0.7-2.6,1.2-5.3,1.7-7.9c-3.1,2.1-5.7,4.2-9,7
	c-0.6,2.5-0.9,5-0.9,7.5C1085.9,191.3,1088.6,191.5,1090.9,192.1z"/>
<path class="st8" d="M1090.9,192.5h-0.1c-1.1-0.3-2.1-0.5-3.2-0.6c-1.3-0.2-2.7-0.5-3.9-0.8c-0.2-0.1-0.3-0.2-0.3-0.4
	c0-2.2,0.2-4.4,0.8-6.6l0.2-1c0-0.1,0.1-0.2,0.1-0.2c2.9-2.5,5.9-4.8,9.1-7c0.1-0.1,0.3-0.1,0.5,0c0.1,0.1,0.2,0.3,0.2,0.4
	c-0.5,2.4-0.9,4.9-1.5,7.4c2.2,0.1,4.8,0.3,7.5,0.7c0.2,0,0.3,0.1,0.3,0.3c0,0.2,0,0.3-0.2,0.4c-3.1,2.3-6.2,4.8-9.1,7.4
	C1091.1,192.5,1091,192.5,1090.9,192.5z M1084.2,190.3c1.2,0.3,2.3,0.6,3.5,0.7c1,0.2,2.1,0.3,3.1,0.6c2.6-2.3,5.4-4.6,8.2-6.7
	c-2.5-0.3-4.9-0.5-6.9-0.6c-0.1,0-0.2-0.1-0.3-0.2c-0.1-0.1-0.1-0.2-0.1-0.3c0.6-2.3,1-4.6,1.5-6.9c-2.7,1.9-5,3.8-8.1,6.3l-0.2,0.9
	C1084.5,186.2,1084.2,188.3,1084.2,190.3z"/>
<path class="st7" d="M1070.9,188.2c-4.3-1-8.8-0.3-12.7,1.7c-3.8,2.1-6.7,5.5-8.2,9.6c-0.9,2.7-1.2,5.5-1.1,8.3
	c0.2,4,2.2,7.7,5.3,10.3c3.3,2.8,7.4,4.5,11.7,4.8c5.9,0.3,11.5-2.4,15-7.1c3.3-4.7,4-10.8,2-16.2
	C1080.9,194.3,1076.5,189.4,1070.9,188.2z"/>
<path class="st8" d="M1066.9,223.4c-0.4,0-0.7,0-1.1,0c-4.4-0.3-8.6-2-11.9-4.9c-3.2-2.6-5.2-6.5-5.4-10.6c-0.2-2.9,0.2-5.8,1.1-8.5
	c1.5-4.2,4.5-7.7,8.4-9.8c4-2.1,8.6-2.8,13-1.8c5.2,1.2,10.1,5.8,12.3,11.7c2.1,5.5,1.3,11.7-2,16.5
	C1077.9,220.6,1072.6,223.3,1066.9,223.4z M1066.9,188.1c-3,0-5.9,0.7-8.5,2.1c-3.7,2-6.6,5.3-8,9.3c-0.9,2.6-1.2,5.4-1,8.2
	c0.2,3.9,2.1,7.5,5.1,10c3.2,2.8,7.2,4.4,11.4,4.7c5.7,0.3,11.2-2.3,14.6-7c3.2-4.6,3.9-10.5,2-15.8c-2.1-5.7-6.7-10.1-11.7-11.2
	l0,0C1069.5,188.3,1068.2,188.1,1066.9,188.1z"/>
<path class="st9" d="M1068.8,196.3c-2.3-0.5-4.7-0.2-6.8,0.9c-2,1.1-3.6,2.9-4.4,5c-0.5,1.4-0.7,2.9-0.6,4.4
	c0.1,2.1,1.2,4.1,2.8,5.4c1.8,1.5,4,2.4,6.3,2.5c3.2,0.2,6.2-1.2,8.1-3.8c1.8-2.5,2.2-5.7,1.1-8.5
	C1074.2,199.4,1071.8,197.1,1068.8,196.3z"/>
<path class="st8" d="M1066.7,215h-0.6c-2.4-0.2-4.7-1.1-6.5-2.6c-1.8-1.4-2.9-3.5-3-5.7c-0.1-1.5,0.1-3.1,0.6-4.6
	c0.8-2.3,2.5-4.1,4.6-5.3c2.2-1.1,4.7-1.5,7.1-0.9l0,0c3.1,0.9,5.7,3.2,6.8,6.3c1.1,3,0.7,6.3-1.1,8.9
	C1072.7,213.6,1069.8,215,1066.7,215z M1066.7,196.5c-1.6,0-3.1,0.4-4.5,1.1c-2,1-3.5,2.7-4.2,4.8c-0.5,1.4-0.6,2.8-0.5,4.2
	c0.1,2,1.1,3.9,2.7,5.1c1.7,1.5,3.8,2.3,6.1,2.5c3,0.2,5.9-1.2,7.7-3.6c1.7-2.4,2.1-5.4,1-8.2c-1-2.8-3.3-5-6.2-5.8l0,0
	C1068.1,196.5,1067.4,196.5,1066.7,196.5L1066.7,196.5z"/>
<path class="st8" d="M1067.1,205c-0.1,0-0.2-0.1-0.3-0.1c-0.2-0.2-0.2-0.4,0-0.6c0,0,0,0,0,0c9.7-8.6,19.9-17,30.4-24.7
	c0.2-0.1,0.5,0,0.6,0.2c0.1,0.2,0.1,0.4-0.1,0.5c-10.4,7.7-20.6,16-30.3,24.6C1067.3,204.9,1067.2,204.9,1067.1,205z"/>
<path class="st8" d="M1059,220.3c-0.1,0-0.1,0-0.1-0.1c-3.1-5.9-5.8-12.1-7.9-18.4c0-0.1,0-0.1,0.1-0.2c0,0,0,0,0,0
	c0.1,0,0.1,0,0.2,0.1c0,0,0,0,0,0c2.1,6.3,4.7,12.5,7.8,18.4C1059.2,220.2,1059.1,220.2,1059,220.3
	C1059.1,220.3,1059.1,220.3,1059,220.3L1059,220.3z"/>
<path class="st8" d="M1061.4,220.9c-0.1,0-0.1,0-0.1-0.1c-3.2-7.1-6.1-14.4-8.8-21.7c0-0.1,0-0.1,0.1-0.2c0.1,0,0.1,0,0.2,0.1
	c0,0,0,0,0,0c2.7,7.3,5.7,14.6,8.8,21.7C1061.6,220.8,1061.6,220.9,1061.4,220.9C1061.5,220.9,1061.5,220.9,1061.4,220.9
	L1061.4,220.9z"/>
<path class="st8" d="M1056.1,201.5c-0.1,0-0.1,0-0.1-0.1c-0.8-1.8-1.6-3.6-2.3-5.5c0-0.1,0-0.1,0.1-0.2c0,0,0,0,0,0
	c0.1,0,0.1,0,0.2,0.1c0,0,0,0,0,0c0.7,1.9,1.4,3.7,2.3,5.5C1056.2,201.4,1056.2,201.5,1056.1,201.5L1056.1,201.5z"/>
<path class="st8" d="M1057.7,199c-0.1,0-0.1,0-0.1-0.1l-2.1-5.1c0-0.1,0-0.1,0.1-0.2c0,0,0,0,0,0c0.1,0,0.1,0,0.2,0.1l2.1,5.1
	C1057.9,198.9,1057.8,199,1057.7,199L1057.7,199z"/>
<path class="st8" d="M1059.4,196.5c-0.1,0-0.1,0-0.1-0.1l-1.9-4.4c0-0.1,0-0.1,0.1-0.2c0.1,0,0.1,0,0.2,0.1c0,0,0,0,0,0l1.9,4.4
	C1059.5,196.4,1059.5,196.5,1059.4,196.5L1059.4,196.5z"/>
<path class="st8" d="M1062.1,195.1c-0.1,0-0.1,0-0.1-0.1c-0.6-1.5-1.2-3-1.7-4.4c0-0.1,0-0.1,0.1-0.2c0.1,0,0.1,0,0.1,0.1
	c0.5,1.5,1,3,1.7,4.4C1062.2,195,1062.2,195,1062.1,195.1L1062.1,195.1z"/>
<path class="st8" d="M1064.6,194.1c-0.1,0-0.1,0-0.1-0.1c-0.6-1.4-1.1-2.8-1.5-4.3c0-0.1,0.1-0.1,0.1-0.1c0.1,0,0.1,0,0.1,0.1
	c0.4,1.5,0.9,2.9,1.5,4.3C1064.8,194,1064.8,194.1,1064.6,194.1C1064.7,194.1,1064.7,194.1,1064.6,194.1L1064.6,194.1z"/>
<path class="st8" d="M1067.5,194.2c-0.1,0-0.1,0-0.1-0.1l-1.4-4.7c0-0.1,0-0.1,0.1-0.2c0,0,0,0,0,0c0.1,0,0.1,0,0.2,0.1l1.4,4.7
	C1067.6,194.1,1067.6,194.2,1067.5,194.2L1067.5,194.2z"/>
<path class="st8" d="M1070.6,195.6c-0.1,0-0.1,0-0.1-0.1l-1.8-5.7c0-0.1,0-0.1,0.1-0.2c0.1,0,0.1,0,0.2,0.1l1.8,5.7
	C1070.8,195.5,1070.7,195.6,1070.6,195.6C1070.6,195.6,1070.6,195.6,1070.6,195.6L1070.6,195.6z"/>
<path class="st8" d="M1074.2,197c-0.1,0-0.1,0-0.1-0.1l-2.5-6.5c0-0.1,0-0.1,0.1-0.2c0.1,0,0.1,0,0.2,0.1l2.5,6.5
	C1074.4,196.9,1074.3,197,1074.2,197C1074.2,197,1074.2,197,1074.2,197L1074.2,197z"/>
<path class="st8" d="M1064.6,221.9c0,0-0.1,0-0.1-0.1c-1.1-2-2-4.1-2.8-6.2c0-0.1,0-0.1,0.1-0.2c0,0,0,0,0,0c0.1,0,0.1,0,0.2,0.1
	c0.8,2.1,1.7,4.2,2.8,6.2c0,0,0.1,0.1,0,0.2c0,0,0,0,0,0C1064.7,221.9,1064.7,221.9,1064.6,221.9L1064.6,221.9z"/>
<path class="st8" d="M1067,221.8c0,0-0.1,0-0.1-0.1c-1.1-1.8-2-3.6-2.7-5.6c0-0.1,0-0.1,0.1-0.2c0.1,0,0.1,0,0.2,0.1c0,0,0,0,0,0
	c0.7,1.9,1.6,3.8,2.7,5.5c0,0.1,0,0.1,0,0.2L1067,221.8z"/>
<path class="st8" d="M1069.4,221.4c-0.1,0-0.1,0-0.1-0.1c-0.8-1.6-1.6-3.4-2.3-5.1c0-0.1,0-0.2,0-0.2c0.1,0,0.2,0,0.2,0
	c0,0,0,0,0,0.1c0.7,1.7,1.5,3.4,2.3,5.1C1069.6,221.3,1069.5,221.4,1069.4,221.4L1069.4,221.4z"/>
<path class="st8" d="M1075.6,194.5c-0.1,0-0.1,0-0.1-0.1l-0.9-2.7c0-0.1,0-0.2,0.1-0.2c0.1,0,0.1,0,0.2,0.1l0.9,2.7
	C1075.7,194.4,1075.7,194.5,1075.6,194.5L1075.6,194.5z"/>
<path class="st8" d="M1082.2,209.2c-0.1,0-0.1,0-0.1-0.1c-1.7-3.7-3.3-7.4-4.8-11.2c0-0.1,0-0.1,0.1-0.2c0.1,0,0.1,0,0.2,0.1l0,0
	c1.5,3.8,3.1,7.5,4.8,11.2C1082.4,209.1,1082.3,209.1,1082.2,209.2L1082.2,209.2z"/>
<path class="st8" d="M1082.5,203.9c-0.1,0-0.1,0-0.1-0.1c-1.3-2.4-2.5-4.8-3.5-7.3c0-0.1,0-0.1,0.1-0.2c0,0,0,0,0,0
	c0.1,0,0.1,0,0.2,0.1c1.1,2.5,2.2,4.9,3.5,7.2C1082.7,203.7,1082.7,203.8,1082.5,203.9L1082.5,203.9z"/>
<path class="st8" d="M1081.2,212.6c-0.1,0-0.1,0-0.1-0.1l-5.6-12.9c0-0.1,0-0.1,0.1-0.2c0.1,0,0.1,0,0.2,0.1l5.6,12.9
	C1081.4,212.5,1081.3,212.5,1081.2,212.6L1081.2,212.6z"/>
<path class="st8" d="M1079.9,215c-0.1,0-0.1,0-0.1-0.1l-2.8-6.1c0-0.1,0-0.1,0.1-0.2c0.1,0,0.1,0,0.2,0.1l2.8,6.1
	C1080,214.9,1080,214.9,1079.9,215L1079.9,215z"/>
<path class="st8" d="M1078.1,216.8c-0.1,0-0.1,0-0.1-0.1l-2.4-5.3c0-0.1,0-0.2,0.1-0.2c0.1,0,0.1,0,0.2,0.1l2.4,5.3
	C1078.3,216.6,1078.2,216.7,1078.1,216.8C1078.2,216.8,1078.2,216.8,1078.1,216.8L1078.1,216.8z"/>
<path class="st8" d="M1076.3,218.2c-0.1,0-0.1,0-0.1-0.1l-2-4.4c0-0.1,0-0.1,0.1-0.2c0.1,0,0.1,0,0.2,0.1l0,0l2.1,4.4
	C1076.4,218.1,1076.4,218.2,1076.3,218.2L1076.3,218.2z"/>
<path class="st8" d="M1074.3,219.6c-0.1,0-0.1,0-0.1-0.1l-2.1-4.4c0-0.1,0-0.1,0.1-0.2c0,0,0,0,0,0c0.1,0,0.1,0,0.2,0.1l2.1,4.4
	C1074.4,219.5,1074.4,219.6,1074.3,219.6L1074.3,219.6z"/>
<path class="st8" d="M1071.8,221.1c-0.1,0-0.1,0-0.1-0.1l-2.1-4.5c0-0.1,0-0.1,0.1-0.2c0.1,0,0.1,0,0.2,0c0,0,0,0,0,0l2.1,4.5
	C1072,221,1071.9,221.1,1071.8,221.1C1071.9,221.1,1071.9,221.1,1071.8,221.1L1071.8,221.1z"/>
<g class="st10">
	<path class="st8" d="M1093.2,184.5c-0.4-0.7-1.1-0.5-1.6,0s-0.9,0.7-1.4,1c-2,1.5-4.1,2.8-5.7,4.2c-0.3,0.4-0.2,0.9,0.2,1.1
		c0.3,0.2,0.6,0.2,0.9,0.1c1.9-1.4,3.8-2.7,5.7-4.1c0.5-0.3,1-0.7,1.5-1C1093.2,185.6,1093.4,185.1,1093.2,184.5
		C1093.2,184.6,1093.2,184.6,1093.2,184.5z"/>
</g>
<path class="st7" d="M1090.7,208.8c3.3-0.6,6.6-1,10-1.3c-1.8-1.5-3.6-2.8-5.5-4.1c1.7-1.6,3.2-3.3,4.7-5c-3.2,0.2-6,0.5-9.7,1.1
	c-1.6,1.5-2.9,3.2-4.1,5.1C1087.3,206,1089.3,207.3,1090.7,208.8z"/>
<path class="st8" d="M1090.7,209.2c-0.1,0-0.2,0-0.3-0.1c-0.7-0.7-1.3-1.3-2.1-1.9c-0.9-0.7-1.7-1.5-2.5-2.4c-0.1-0.1-0.1-0.3,0-0.5
	c1-1.6,2.2-3.2,3.5-4.5c0.2-0.2,0.4-0.4,0.6-0.7c0.1-0.1,0.1-0.1,0.2-0.1c3.2-0.5,6.5-0.9,9.8-1.1c0.2,0,0.3,0.1,0.4,0.2
	c0.1,0.1,0,0.3-0.1,0.4c-1.4,1.6-2.8,3.1-4.4,4.7c1.6,1.1,3.3,2.4,5.1,3.8c0.1,0.1,0.2,0.3,0.1,0.4c0,0.2-0.2,0.3-0.4,0.3
	c-3.3,0.3-6.7,0.7-10,1.3L1090.7,209.2z M1086.6,204.5c0.7,0.7,1.4,1.4,2.2,2.1c0.7,0.6,1.4,1.2,2,1.8c2.9-0.5,5.9-0.9,8.8-1.2
	c-1.6-1.3-3.3-2.4-4.7-3.4c-0.1-0.1-0.2-0.2-0.2-0.3c0-0.1,0-0.2,0.1-0.3c1.4-1.4,2.7-2.8,4-4.2c-2.7,0.2-5.3,0.5-8.5,0.9l-0.5,0.5
	C1088.6,201.6,1087.5,203,1086.6,204.5L1086.6,204.5z"/>
<path class="st8" d="M1067.7,207.7c-0.2,0-0.4-0.1-0.4-0.3c0-0.2,0.1-0.4,0.3-0.5c0,0,0,0,0,0c11-2,22.1-3.5,33.2-4.4
	c0.2,0,0.4,0.1,0.5,0.3c0,0.2-0.1,0.4-0.3,0.5c0,0-0.1,0-0.1,0C1089.9,204.2,1078.7,205.7,1067.7,207.7L1067.7,207.7z"/>
<g class="st10">
	<path class="st8" d="M1096.3,204.3c0-0.7-0.6-0.8-1.2-0.7s-1,0.1-1.5,0.1c-2.2,0.2-4.3,0.2-6,0.5c-0.4,0.1-0.5,0.5-0.4,0.9
		c0.1,0.3,0.3,0.4,0.6,0.4c2-0.2,4-0.3,6-0.4c0.5,0,1-0.1,1.6-0.1C1095.8,205.1,1096.2,204.8,1096.3,204.3
		C1096.3,204.4,1096.3,204.4,1096.3,204.3z"/>
</g>
<g class="st10">
	<path class="st8" d="M1076.3,204.3c0-0.5,0-0.9-0.2-1.3c-0.3-0.4-0.8-0.5-1.2-0.2c0,0,0,0,0,0c-0.5,0.4-0.3,1.1-0.4,1.7l0,0
		c-0.1,0.6-0.2,1.2-0.4,1.7c-0.6,1.4-1.4,2.7-2.5,3.7c-1.2,1-2.6,1.7-4.1,2.1c-1,0.3-2.1,0.3-3.2,0.1l0,0c-1.5-0.1-3-0.7-4-1.8
		c-0.3-0.3-0.9-0.3-1.2,0c-0.3,0.3-0.3,0.9,0,1.2c1.7,1.6,4,2.6,6.4,2.7c0.4,0,0.9,0,1.3-0.1c0,0.1,0,0.2,0,0.3
		c0.4,0.8,0.9,0.5,1.4,0.5l1.3-0.3c1.4-0.4,2.7-1.2,3.7-2.3C1075.3,210.2,1076.5,207.3,1076.3,204.3L1076.3,204.3z"/>
</g>
<g class="st10">
	<path class="st8" d="M1083.8,204.6c0-0.5-0.1-1-0.2-1.5c0-0.3-0.2-0.6-0.4-0.8c-0.4-0.2-0.9-0.1-1.2,0.3c-0.1,0.2-0.1,0.4-0.1,0.6
		c0.2,1.1,0.2,2.3,0,3.4c-0.3,1.4-0.8,2.7-1.3,4c-0.1,0.3-0.2,0.5-0.3,0.8c-0.1,0.3-0.1,0.2-0.3,0.6c-0.4,0.9-0.8,1.7-1.4,2.5
		c-1.3,1.8-2.9,3.4-4.7,4.8c-1.2,0.9-1,0.5-2.1,1.2l0.3-0.2l-0.5,0.2c-1.5,0.6-3.1,1.1-4.7,1.4h-0.1h-0.2c-0.5,0-1,0-1.5,0
		c-0.2,0-0.4,0-0.6-0.1c-0.1,0-0.3,0-0.4,0.1c-0.3,0.2-0.4,0.5-0.2,0.8c0.1,0.1,0.2,0.2,0.4,0.3c0.3,0.1,0.6,0.1,0.9,0.2h0.1
		c1.2,0.1,2.5,0,3.7-0.3c1.2-0.3,2.4-0.6,3.6-1.1c0.2-0.1-0.1,0-0.1,0c0.5-0.1,1-0.2,1.4-0.4c2.6-1.3,4.9-3.2,6.6-5.6
		c0.6-0.8,1.1-1.6,1.5-2.6c0.2-0.4,0.4-0.9,0.5-1.4v0.3c0.6-1.4,1-2.9,1.3-4.3v0.3C1083.9,206.9,1083.9,205.7,1083.8,204.6z"/>
</g>
<g class="st10">
	<path class="st8" d="M1090.7,213.1c0.5-1.4,0.9-2.9,1.1-4.4h-0.2c-0.2,0-0.4,0-0.6-0.1l-0.2-0.1l0,0l0,0c-0.2-0.1-0.4-0.2-0.6-0.3
		c-0.1,0.5-0.3,1.1-0.5,1.8c-0.5,1.8-1.1,3.4-2,5.1c-0.7,1.3-1.3,2.6-2,3.9c-1,1.6-2.1,3-3.3,4.4c-2.3,2.3-3.9,3.9-6.5,4.7
		c-2.4,1.1-4.9,1.9-7.5,2.3l-0.3,0h-0.4c-0.2,0-0.3,0.1-0.4,0.2c-0.3,0.3-0.2,0.7,0,0.9c0.1,0.1,0.3,0.2,0.4,0.2
		c0.9,0,1.9-0.1,2.8-0.3c1.7-0.3,3.3-0.8,4.9-1.5c1.1-0.3,2.2-0.8,3.2-1.3c1.4-0.8,2.7-1.8,3.8-2.9c0.6-0.5,1.2-1.1,1.7-1.7
		c0.1,0.3,0.5,0.5,0.8,0.4c0.1,0,0.2-0.1,0.3-0.2c1.7-1.8,3.1-3.9,4.1-6.1c0.5-1.1,0.9-2.2,1.3-3.3c0.1-0.4,0.3-0.9,0.1-1.3
		C1090.8,213.2,1090.7,213.1,1090.7,213.1z"/>
</g>
<path class="st8" d="M1055.2,217.2c0,0-0.1,0-0.1-0.1c-1.9-3.3-3.5-6.7-4.9-10.3c0-0.1,0-0.1,0.1-0.2c0.1,0,0.1,0,0.2,0.1
	c0,0,0,0,0,0c1.4,3.5,3,6.9,4.8,10.2C1055.3,217.1,1055.3,217.2,1055.2,217.2L1055.2,217.2z"/>
<circle class="st7" cx="1768.1" cy="144.1" r="8.7"/>
<path class="st8" d="M1768.1,154c-5.5,0-9.9-4.4-9.9-9.9c0-5.5,4.4-9.9,9.9-9.9c5.5,0,9.9,4.4,9.9,9.9c0,0,0,0,0,0
	C1777.9,149.5,1773.5,154,1768.1,154z M1768.1,136.6c-4.2,0-7.5,3.4-7.5,7.5s3.4,7.5,7.5,7.5s7.5-3.4,7.5-7.5
	C1775.6,140,1772.2,136.6,1768.1,136.6L1768.1,136.6z"/>
<circle class="st7" cx="1768.1" cy="181.6" r="8.7"/>
<path class="st8" d="M1768.1,191.5c-5.5,0-9.9-4.4-9.9-9.9c0-5.5,4.4-9.9,9.9-9.9c5.5,0,9.9,4.4,9.9,9.9c0,0,0,0,0,0
	C1777.9,187.1,1773.5,191.5,1768.1,191.5z M1768.1,174.1c-4.2,0-7.5,3.4-7.5,7.5c0,4.2,3.4,7.5,7.5,7.5s7.5-3.4,7.5-7.5
	C1775.6,177.5,1772.2,174.2,1768.1,174.1L1768.1,174.1z"/>
<circle class="st7" cx="1768.1" cy="104.7" r="8.7"/>
<path class="st8" d="M1768.1,114.6c-5.5,0-9.9-4.4-9.9-9.9c0-5.5,4.4-9.9,9.9-9.9c5.5,0,9.9,4.4,9.9,9.9c0,0,0,0,0,0
	C1777.9,110.2,1773.5,114.6,1768.1,114.6z M1768.1,97.2c-4.2,0-7.5,3.4-7.5,7.5s3.4,7.5,7.5,7.5s7.5-3.4,7.5-7.5
	S1772.2,97.2,1768.1,97.2z"/>
<rect x="1552.6" y="484" class="st7" width="81.8" height="56.6"/>
<path class="st8" d="M1634.4,541.2h-81.8c-0.3,0-0.5-0.2-0.5-0.5V484c0-0.3,0.2-0.5,0.5-0.5l0,0h81.8c0.3,0,0.5,0.2,0.5,0.5l0,0
	v56.6C1634.9,540.9,1634.7,541.2,1634.4,541.2z M1553.1,540.1h80.7v-55.6h-80.7V540.1z"/>
<rect x="1552.6" y="481.6" class="st9" width="81.8" height="7.5"/>
<path class="st8" d="M1634.4,489.6h-81.8c-0.3,0-0.5-0.2-0.5-0.5v0v-7.5c0-0.3,0.2-0.5,0.5-0.5l0,0h81.8c0.3,0,0.5,0.2,0.5,0.5v0
	v7.5C1634.9,489.4,1634.7,489.6,1634.4,489.6z M1553.1,488.5h80.7v-6.4h-80.7V488.5z"/>
<rect x="1561.3" y="496.8" class="st7" width="10.4" height="6.9"/>
<path class="st8" d="M1571.7,504.2h-10.4c-0.3,0-0.5-0.2-0.5-0.5c0,0,0,0,0,0v-6.9c0-0.3,0.2-0.5,0.5-0.5c0,0,0,0,0,0h10.4
	c0.3,0,0.5,0.2,0.5,0.5c0,0,0,0,0,0v6.9C1572.2,504,1572,504.2,1571.7,504.2C1571.7,504.2,1571.7,504.2,1571.7,504.2z M1561.9,503.2
	h9.4v-5.9h-9.4V503.2z"/>
<rect x="1579.3" y="496.8" class="st7" width="10.4" height="6.9"/>
<path class="st8" d="M1589.7,504.2h-10.4c-0.3,0-0.5-0.2-0.5-0.5v0v-6.9c0-0.3,0.2-0.5,0.5-0.5l0,0h10.4c0.3,0,0.5,0.2,0.5,0.5v6.9
	C1590.2,504,1590,504.2,1589.7,504.2z M1579.8,503.2h9.4v-5.9h-9.4V503.2z"/>
<rect x="1597.3" y="496.8" class="st7" width="10.4" height="6.9"/>
<path class="st8" d="M1607.7,504.2h-10.4c-0.3,0-0.5-0.2-0.5-0.5v-6.9c0-0.3,0.2-0.5,0.5-0.5h10.4c0.3,0,0.5,0.2,0.5,0.5l0,0v6.9
	C1608.2,504,1607.9,504.2,1607.7,504.2L1607.7,504.2z M1597.8,503.2h9.4v-5.9h-9.4V503.2z"/>
<rect x="1615.2" y="496.8" class="st7" width="10.4" height="6.9"/>
<path class="st8" d="M1625.6,504.2h-10.4c-0.3,0-0.5-0.2-0.5-0.5v-6.9c0-0.3,0.2-0.5,0.5-0.5h10.4c0.3,0,0.5,0.2,0.5,0.5l0,0v6.9
	C1626.1,504,1625.9,504.2,1625.6,504.2L1625.6,504.2z M1615.8,503.2h9.4v-5.9h-9.4L1615.8,503.2z"/>
<rect x="1561.3" y="512.3" class="st7" width="10.4" height="6.9"/>
<path class="st8" d="M1571.7,519.8h-10.4c-0.3,0-0.5-0.2-0.5-0.5c0,0,0,0,0,0v-6.9c0-0.3,0.2-0.5,0.5-0.5l0,0h10.4
	c0.3,0,0.5,0.2,0.5,0.5l0,0v6.9C1572.2,519.5,1572,519.8,1571.7,519.8C1571.7,519.8,1571.7,519.8,1571.7,519.8z M1561.9,518.7h9.4
	v-5.9h-9.4V518.7z"/>
<rect x="1579.3" y="512.3" class="st7" width="10.4" height="6.9"/>
<path class="st8" d="M1589.7,519.8h-10.4c-0.3,0-0.5-0.2-0.5-0.5l0,0v-6.9c0-0.3,0.2-0.5,0.5-0.5h10.4c0.3,0,0.5,0.2,0.5,0.5v6.9
	C1590.2,519.5,1590,519.8,1589.7,519.8z M1579.8,518.7h9.4v-5.9h-9.4V518.7z"/>
<rect x="1597.3" y="512.3" class="st7" width="10.4" height="6.9"/>
<path class="st8" d="M1607.7,519.8h-10.4c-0.3,0-0.5-0.2-0.5-0.5v-6.9c0-0.3,0.2-0.5,0.5-0.5h10.4c0.3,0,0.5,0.2,0.5,0.5v6.9
	C1608.2,519.5,1607.9,519.8,1607.7,519.8L1607.7,519.8z M1597.8,518.7h9.4v-5.9h-9.4V518.7z"/>
<rect x="1615.2" y="512.3" class="st7" width="10.4" height="6.9"/>
<path class="st8" d="M1625.6,519.8h-10.4c-0.3,0-0.5-0.2-0.5-0.5v-6.9c0-0.3,0.2-0.5,0.5-0.5h10.4c0.3,0,0.5,0.2,0.5,0.5v6.9
	C1626.1,519.5,1625.9,519.8,1625.6,519.8L1625.6,519.8z M1615.8,518.7h9.4v-5.9h-9.4L1615.8,518.7z"/>
<rect x="1561.3" y="526.2" class="st7" width="10.4" height="6.9"/>
<path class="st8" d="M1571.7,533.7h-10.4c-0.3,0-0.5-0.2-0.5-0.5l0,0v-6.9c0-0.3,0.2-0.5,0.5-0.5c0,0,0,0,0,0h10.4
	c0.3,0,0.5,0.2,0.5,0.5c0,0,0,0,0,0v6.9C1572.2,533.5,1572,533.7,1571.7,533.7L1571.7,533.7z M1561.9,532.6h9.4v-5.9h-9.4V532.6z"/>
<rect x="1579.3" y="526.2" class="st7" width="10.4" height="6.9"/>
<path class="st8" d="M1589.7,533.7h-10.4c-0.3,0-0.5-0.2-0.5-0.5v-6.9c0-0.3,0.2-0.5,0.5-0.5l0,0h10.4c0.3,0,0.5,0.2,0.5,0.5v6.9
	C1590.2,533.4,1590,533.7,1589.7,533.7z M1579.8,532.6h9.4v-5.9h-9.4V532.6z"/>
<rect x="1597.3" y="526.2" class="st7" width="10.4" height="6.9"/>
<path class="st8" d="M1607.7,533.7h-10.4c-0.3,0-0.5-0.2-0.5-0.5v-6.9c0-0.3,0.2-0.5,0.5-0.5h10.4c0.3,0,0.5,0.2,0.5,0.5v0v6.9
	C1608.2,533.5,1607.9,533.7,1607.7,533.7z M1597.8,532.6h9.4v-5.9h-9.4V532.6z"/>
<rect x="1615.2" y="526.2" class="st7" width="10.4" height="6.9"/>
<path class="st8" d="M1625.6,533.7h-10.4c-0.3,0-0.5-0.2-0.5-0.5v-6.9c0-0.3,0.2-0.5,0.5-0.5h10.4c0.3,0,0.5,0.2,0.5,0.5v0v6.9
	C1626.1,533.5,1625.9,533.7,1625.6,533.7z M1615.8,532.6h9.4v-5.9h-9.4L1615.8,532.6z"/>
<path class="st8" d="M1609.2,485.9c-0.3,0-0.5-0.2-0.5-0.5v-6.8c0-0.3,0.2-0.5,0.5-0.5c0.3,0,0.5,0.2,0.5,0.5c0,0,0,0,0,0v6.8
	C1609.7,485.7,1609.5,485.9,1609.2,485.9z"/>
<path class="st8" d="M1577.7,485.9c-0.3,0-0.5-0.2-0.5-0.5v-6.8c0-0.3,0.2-0.5,0.5-0.5c0.3,0,0.5,0.2,0.5,0.5v6.8
	C1578.2,485.7,1578,485.9,1577.7,485.9z"/>
<path class="st8" d="M1580.4,499.5c-0.1,0-0.2-0.1-0.2-0.2c0,0,0-0.1,0-0.1c0.5-0.5,1.1-1.1,1.6-1.6c0.1-0.1,0.2-0.1,0.2,0
	c0.1,0.1,0.1,0.2,0,0.2c0,0,0,0,0,0c-0.5,0.5-1.1,1-1.6,1.6C1580.5,499.5,1580.5,499.5,1580.4,499.5z"/>
<path class="st8" d="M1587.5,502.6c0,0-0.1,0-0.1-0.1c-0.1-0.1-0.1-0.2,0-0.2c0,0,0,0,0,0l1.1-1.1c0.1-0.1,0.2-0.1,0.2,0
	c0,0,0,0,0,0c0.1,0.1,0.1,0.2,0,0.2l-1.1,1.1C1587.6,502.6,1587.6,502.6,1587.5,502.6z"/>
<path class="st8" d="M1562.5,514.5c0,0-0.1,0-0.1,0c-0.1-0.1-0.1-0.2,0-0.2c0.3-0.3,0.6-0.6,0.9-0.9c0.1-0.1,0.2-0.1,0.2,0
	c0.1,0.1,0.1,0.2,0,0.2c-0.3,0.3-0.6,0.6-0.9,0.9C1562.6,514.6,1562.6,514.6,1562.5,514.5z"/>
<path class="st8" d="M1562.6,517.1c0,0-0.1,0-0.1,0c-0.1-0.1-0.1-0.2,0-0.2c0,0,0,0,0,0c1-1.2,2.1-2.4,3.2-3.5
	c0.1-0.1,0.2-0.1,0.2,0c0.1,0.1,0.1,0.2,0,0.2c0,0,0,0,0,0c-1.1,1.1-2.2,2.3-3.2,3.5C1562.7,517,1562.6,517.1,1562.6,517.1z"/>
<path class="st8" d="M1564.3,518.3c0,0-0.1,0-0.1,0c-0.1-0.1-0.1-0.2,0-0.2c1.3-1.6,2.7-3.2,4.1-4.7c0-0.1,0.2-0.1,0.2-0.1
	c0.1,0,0.1,0.2,0.1,0.2c0,0,0,0,0,0c-1.4,1.5-2.8,3.1-4.1,4.7C1564.5,518.3,1564.4,518.3,1564.3,518.3z"/>
<path class="st8" d="M1567,518.2c0,0-0.1,0-0.1,0c-0.1-0.1-0.1-0.2,0-0.2c1.1-1.3,2.1-2.5,3.2-3.8c0.1-0.1,0.2-0.1,0.2,0
	c0.1,0.1,0.1,0.2,0,0.2c0,0,0,0,0,0c-1.1,1.3-2.2,2.5-3.2,3.8C1567.2,518.2,1567.1,518.3,1567,518.2z"/>
<path class="st8" d="M1569.7,518.3C1569.6,518.3,1569.6,518.3,1569.7,518.3c-0.2-0.1-0.2-0.2-0.1-0.2c0,0,0,0,0,0
	c0.2-0.3,0.5-0.7,0.8-1c0.1-0.1,0.2-0.1,0.2,0c0.1,0.1,0.1,0.2,0,0.2c0,0,0,0,0,0c-0.3,0.3-0.5,0.7-0.8,1
	C1569.7,518.3,1569.7,518.3,1569.7,518.3z"/>
<path class="st8" d="M1580.6,501.5c-0.1,0-0.1,0-0.1-0.1c-0.1-0.1-0.1-0.2,0-0.2c0,0,0,0,0,0c1.3-1.1,2.5-2.3,3.7-3.5
	c0.1-0.1,0.2-0.1,0.2,0c0.1,0.1,0.1,0.2,0,0.2C1583.2,499.2,1581.9,500.4,1580.6,501.5C1580.6,501.5,1580.6,501.5,1580.6,501.5z"/>
<path class="st8" d="M1582.2,502.8c0,0-0.1,0-0.1-0.1c-0.1-0.1-0.1-0.2,0-0.2c0,0,0,0,0,0c1.6-1.6,3.4-3.2,5.1-4.7
	c0.1-0.1,0.2-0.1,0.2,0c0,0,0,0,0,0c0.1,0.1,0.1,0.2,0,0.2c-1.7,1.5-3.4,3.1-5.1,4.7C1582.3,502.7,1582.2,502.8,1582.2,502.8z"/>
<path class="st8" d="M1584.8,502.8c0,0-0.1,0-0.1-0.1c-0.1-0.1-0.1-0.2,0-0.2c1.2-1.1,2.4-2.3,3.7-3.4c0.1-0.1,0.2-0.1,0.2,0
	c0.1,0.1,0.1,0.2,0,0.2c0,0,0,0,0,0c-1.2,1.1-2.5,2.2-3.7,3.4C1584.9,502.8,1584.9,502.8,1584.8,502.8z"/>
<path class="st8" d="M1598.4,529.1c0,0-0.1,0-0.1,0c-0.1-0.1-0.1-0.2,0-0.2l1.2-1.5c0.1-0.1,0.2-0.1,0.2,0c0.1,0.1,0.1,0.2,0,0.2
	l0,0l-1.2,1.5C1598.6,529.1,1598.5,529.1,1598.4,529.1z"/>
<path class="st8" d="M1598.5,531.9c0,0-0.1,0-0.1,0c-0.1-0.1-0.1-0.2,0-0.2c0,0,0,0,0,0c1.1-1.6,2.3-3.1,3.6-4.5
	c0.1-0.1,0.2-0.1,0.2,0c0.1,0.1,0.1,0.2,0,0.2c-1.3,1.4-2.5,2.9-3.6,4.5C1598.7,531.9,1598.6,531.9,1598.5,531.9z"/>
<path class="st8" d="M1601.3,532c0,0-0.1,0-0.1,0c-0.1-0.1-0.1-0.2,0-0.2c0,0,0,0,0,0l2.7-3.3c0.1-0.1,0.2-0.1,0.2,0
	c0.1,0.1,0.1,0.2,0,0.2c0,0,0,0,0,0l-2.7,3.3C1601.4,532,1601.3,532,1601.3,532z"/>
<path class="st8" d="M1603.6,532.1c0,0-0.1,0-0.1,0c-0.1-0.1-0.1-0.2,0-0.2l0.6-0.8c0.1-0.1,0.2-0.1,0.2,0c0,0,0,0,0,0
	c0.1,0.1,0.1,0.2,0,0.2l-0.6,0.8C1603.7,532.1,1603.6,532.1,1603.6,532.1z"/>
<g class="st10">
	<rect x="1552.6" y="489.2" class="st8" width="81.8" height="2.4"/>
</g>
<ellipse transform="matrix(0.7071 -0.7071 0.7071 0.7071 99.1297 1305.6534)" class="st7" cx="1625.6" cy="533.2" rx="22.5" ry="22.5"/>
<path class="st8" d="M1625.6,556.1h-0.3c-12.7-0.1-22.9-10.4-22.8-23.1c0.1-12.7,10.4-22.9,23.1-22.8h0.3
	c12.7,0.1,22.9,10.4,22.8,23.1C1648.7,546,1638.3,556.2,1625.6,556.1z M1625.6,511.2c-12.8,0.1-23.2,10.5-23.1,23.4
	c0.1,12.8,10.5,23.2,23.4,23.1c12.8-0.1,23.2-10.5,23.1-23.4c-0.1-12.7-10.4-23-23.1-23.1H1625.6z"/>
<path class="st8" d="M1625.8,517.5L1625.8,517.5c-0.3,0-0.5-0.2-0.5-0.5v-3c0-0.3,0.2-0.5,0.5-0.5l0,0c0.3,0,0.5,0.2,0.5,0.5
	c0,0,0,0,0,0v3.1C1626.3,517.3,1626.1,517.5,1625.8,517.5z"/>
<path class="st8" d="M1625.4,552.9L1625.4,552.9c-0.3,0-0.5-0.2-0.5-0.5c0,0,0,0,0,0v-3.1c0-0.3,0.2-0.5,0.5-0.5l0,0
	c0.3,0,0.5,0.2,0.5,0.5v3C1625.9,552.6,1625.7,552.9,1625.4,552.9z"/>
<path class="st8" d="M1644.8,533.9L1644.8,533.9h-3c-0.3,0-0.5-0.2-0.6-0.5c0-0.3,0.2-0.5,0.5-0.6c0,0,0.1,0,0.1,0h3.1
	c0.3,0,0.5,0.2,0.5,0.5C1645.3,533.7,1645.1,533.9,1644.8,533.9L1644.8,533.9z"/>
<path class="st8" d="M1609.5,533.5L1609.5,533.5h-3.1c-0.3,0-0.5-0.2-0.5-0.5c0-0.3,0.2-0.5,0.5-0.5l0,0h3c0.3,0,0.5,0.2,0.5,0.5
	c0,0,0,0,0,0C1610,533.3,1609.8,533.5,1609.5,533.5z"/>
<path class="st8" d="M1626.2,533.2c-0.1,0-0.3-0.1-0.4-0.2c-0.2-0.2-0.2-0.5,0-0.7l8.4-8.2c0.2-0.2,0.5-0.2,0.7-0.1
	c0.2,0.2,0.2,0.5,0.1,0.7c0,0,0,0-0.1,0.1l-8.4,8.2C1626.4,533.1,1626.3,533.2,1626.2,533.2z"/>
<path class="st7" d="M1623.2,533.1c0-1.3,1.1-2.4,2.5-2.4c1.3,0,2.4,1.1,2.4,2.5c0,1.3-1.1,2.4-2.5,2.4c0,0,0,0,0,0
	C1624.2,535.6,1623.2,534.5,1623.2,533.1z"/>
<path class="st8" d="M1625.6,536.1L1625.6,536.1c-1.7,0-3-1.4-2.9-3l0,0c0-1.6,1.3-2.9,3-2.9c0.8,0,1.5,0.3,2.1,0.9
	c0.5,0.6,0.8,1.3,0.8,2.1C1628.6,534.8,1627.2,536.1,1625.6,536.1z M1623.7,533.1c0,1.1,0.8,1.9,1.9,1.9l0,0c1,0,1.9-0.8,1.9-1.9
	c0-1-0.8-1.9-1.8-1.9c0,0,0,0,0,0l0,0C1624.6,531.3,1623.7,532.1,1623.7,533.1z"/>
<g class="st10">
	<path class="st8" d="M1645.1,545.6c0.9-2.8,1.8-5.6,2.7-8.4l1.1-4.2c-0.3,0.2-0.3,0.6-0.5,1.1c-0.3,1-0.6,1.9-1,2.9
		c-0.8,2.4-2.1,4.6-3.7,6.5c-1.9,2.2-4.1,4-6.6,5.5c-2.1,1.2-4.3,2.2-6.7,2.9c-1.1,0.4-2.3,0.7-3.5,0.8c-1.2,0-2.4,0-3.7-0.1h-0.2
		h-0.1c-2.2-0.5-4.4-1.3-6.6-1.8c-3.5-0.9-6.5-3.3-9.3-5.8c-0.3-0.2-0.5-0.5-0.8-0.8c1.6,2.1,3.2,4.1,5,6.1l1.7,2
		c1.2,0.6,2.5,1.1,3.8,1.4c1.7,0.6,3.3,1.1,5.1,1.5c1.9,0.3,3.9,0.4,5.9,0.2c3.7-0.6,7.2-1.8,10.4-3.7c2-1.2,3.9-2.6,5.5-4.2
		c0.6-0.5,1.1-1.1,1.6-1.7C1645,545.8,1645,545.7,1645.1,545.6z"/>
</g>
<path class="st7" d="M122.5,618.9c-0.1,0-0.2,0-0.3-0.1c-0.3-0.1-0.5-0.5-0.4-0.8l4.3-23.4c-9.3-3-15.7-11.6-15.7-21.4v-29.5
	c0-12.4,10-22.4,22.4-22.4h64.1c12.4,0,22.4,10,22.4,22.4v29.5c0,12.4-10,22.4-22.4,22.4h-54.1L123,618.6
	C122.9,618.8,122.7,618.9,122.5,618.9z M132.8,522.8c-11.6,0-21,9.4-21,21v29.5c0,9.4,6.3,17.6,15.3,20.2c0.4,0.1,0.6,0.5,0.5,0.8
	l-3.9,21.4l18.3-21.2c0.1-0.2,0.3-0.2,0.5-0.2h54.4c11.6,0,20.9-9.4,20.9-21v-29.5c0-11.6-9.4-21-21-21H132.8z"/>
<rect x="130.3" y="541.5" class="st9" width="59.8" height="5.7"/>
<path class="st7" d="M190.2,547.9h-59.8c-0.4,0-0.7-0.3-0.7-0.7v-5.7c0-0.4,0.3-0.7,0.7-0.7h59.8c0.4,0,0.7,0.3,0.7,0.7l0,0v5.7
	C190.9,547.6,190.6,547.9,190.2,547.9L190.2,547.9z M131.1,546.4h58.4v-4.2h-58.4V546.4z"/>
<rect x="130.3" y="555" class="st7" width="36.8" height="5.7"/>
<path class="st7" d="M167.1,561.4h-36.8c-0.4,0-0.7-0.3-0.7-0.7V555c0-0.4,0.3-0.7,0.7-0.7h36.8c0.4,0,0.7,0.3,0.7,0.7c0,0,0,0,0,0
	v5.7C167.8,561.1,167.5,561.4,167.1,561.4C167.1,561.4,167.1,561.4,167.1,561.4z M131.1,559.9h35.3v-4.2h-35.3V559.9z"/>
<rect x="130.3" y="568.5" class="st9" width="59.8" height="5.7"/>
<path class="st7" d="M190.2,574.9h-59.8c-0.4,0-0.7-0.3-0.7-0.7v-5.7c0-0.4,0.3-0.7,0.7-0.7h59.8c0.4,0,0.7,0.3,0.7,0.7l0,0v5.7
	C190.9,574.6,190.6,574.9,190.2,574.9L190.2,574.9z M131.1,573.4h58.4v-4.2h-58.4V573.4z"/>
<g class="st10">
	<path class="st8" d="M214,584.8c-0.5,0.5-5.7,4.1-6.3,4.1c-2.9,1.2-6.1,1.8-9.3,1.8c-2.8,0.1-5.7,0.3-8.6,0.3
		c-4.8-0.1-9.7,0.3-14.5,0.5c-4.7,0.2-9.3,0.1-14,0.2c-5.5,0.2-11-0.7-16.6-0.6c-3.9,0-6.2,1.1-9.3,4.9c-1.8,2.2-3.9,5.1-5.8,7.8
		c0.4-1.5,0.6-3.1,0.8-4.7c0.1-1.1,0.2-2.2,0.1-3.2l0.1,0.5c0.1-1.2-0.3-2.4-1.1-3.3c-0.7-0.6-1.6-0.9-2.6-1c-2.3-1.3-4.6-2.5-6.8-4
		c-2.2-1.5-4.4-3.2-6.7-5.1c0.2,0.5,0.5,0.9,0.8,1.4c1.9,2.8,4.2,5.4,6.9,7.5c0.1,0,0.3,0,0.4,0c1.1,0.3,2.2,0.8,3.2,1.3
		c0.5,0.3,1,0.6,1.4,0.9c0.5,0.4,1.2,0.8,1.4,1.4c0.1,0.5-0.2,1-0.6,1.1c0,0.3,0,0.6-0.1,1.1c-0.4,3.2-1.1,6.3-2.3,9.2
		c-0.6,1.6-1.1,3.3-1.7,5c-0.3,0.7-0.4,1.4-0.4,2.1c0.1,0.9,0.8,1.6,1.7,1.7c1.6,0.3,2.4-1.4,3.2-2.5l0,0l0.1-0.1
		c0.9-1.2,1.7-2.4,2.6-3.5c2.3-3.3,3.6-5,5.7-7.6c1.4-2,2.9-3.9,4.7-5.7c1.2-0.9,0.9-0.9,2.1-1.3c0.2,0,0.5-0.1,0.7-0.2
		c4.5-0.3,9,0.1,13.4,0.4c4.9,0.1,9.8-0.1,14.7-0.2c4.9-0.1,9.7-0.4,14.6-0.4c3.6,0,7.1-0.1,10.7-0.3c4.3,0.1,8.5-0.8,12.5-2.5
		c1.8-2,3.7-3.9,5.7-5.7c0.9-1.7,1.9-3.3,2.9-5C216.6,582.5,215.3,583.7,214,584.8z"/>
</g>
<polygon class="st7" points="1434.5,140.7 1504.8,119.5 1480.7,174.8 1466.9,158.4 1458.4,164.1 1456.2,148.6 "/>
<path class="st8" d="M1461.6,157c-0.1,0-0.2,0-0.2-0.1c0,0,0,0,0,0l-1.3-10.6c0-0.1,0.1-0.2,0.1-0.2l0,0c0.1,0,0.2,0.1,0.2,0.1
	l1.3,10.6C1461.8,156.9,1461.7,157,1461.6,157z"/>
<path class="st8" d="M1464.8,153.3L1464.8,153.3c-0.1,0-0.2-0.1-0.2-0.1c-0.3-2.9-0.6-5.9-1.1-8.8c0-0.1,0-0.2,0.1-0.2
	c0.1,0,0.2,0,0.2,0.1c0,0,0,0,0,0c0.5,2.9,0.8,5.9,1.1,8.8C1465,153.2,1464.9,153.3,1464.8,153.3
	C1464.8,153.3,1464.8,153.3,1464.8,153.3z"/>
<path class="st8" d="M1468.1,150.8c-0.1,0-0.1,0-0.2-0.1v-0.1c-0.5-2.7-0.8-5.4-1.1-8.2c0-0.1,0.1-0.2,0.1-0.2l0,0
	c0.1,0,0.2,0.1,0.2,0.1c0.3,2.7,0.6,5.4,1.1,8.1C1468.3,150.6,1468.3,150.7,1468.1,150.8L1468.1,150.8z"/>
<path class="st8" d="M1471.2,147.7c-0.1,0-0.2,0-0.2-0.1c-0.5-2.4-0.9-4.9-1.1-7.3c0-0.1,0.1-0.2,0.1-0.2l0,0c0.1,0,0.2,0.1,0.2,0.1
	c0,0,0,0,0,0c0.2,2.4,0.6,4.9,1.1,7.3C1471.4,147.6,1471.3,147.7,1471.2,147.7L1471.2,147.7z"/>
<path class="st8" d="M1474.4,144.8c-0.1,0-0.2-0.1-0.2-0.1c-0.3-2.1-0.5-4.2-0.7-6.3c0-0.1,0.1-0.2,0.1-0.2c0.1,0,0.2,0.1,0.2,0.1
	c0,0,0,0,0,0c0.2,2.1,0.4,4.2,0.7,6.3C1474.5,144.7,1474.5,144.8,1474.4,144.8L1474.4,144.8z"/>
<path class="st8" d="M1478.2,142.4L1478.2,142.4c-0.1,0-0.2-0.1-0.2-0.1l-0.5-6.7c0-0.1,0.1-0.2,0.1-0.2c0,0,0,0,0,0
	c0.1,0,0.2,0.1,0.2,0.1l0.5,6.7C1478.4,142.3,1478.3,142.4,1478.2,142.4z"/>
<path class="st8" d="M1481.2,139.6L1481.2,139.6c-0.1,0-0.2-0.1-0.2-0.2l-0.2-5.1c0-0.1,0.1-0.2,0.2-0.2c0,0,0,0,0,0
	c0.1,0,0.2,0.1,0.2,0.1c0,0,0,0,0,0l0.2,5.1C1481.3,139.5,1481.2,139.6,1481.2,139.6C1481.2,139.6,1481.2,139.6,1481.2,139.6z"/>
<path class="st8" d="M1484.5,137.4L1484.5,137.4c-0.1,0-0.2-0.1-0.2-0.2l-0.2-5.3c0-0.1,0.1-0.2,0.1-0.2c0,0,0,0,0,0
	c0.1,0,0.2,0.1,0.2,0.2l0.2,5.3C1484.6,137.3,1484.5,137.4,1484.5,137.4z"/>
<path class="st8" d="M1487.8,134.6L1487.8,134.6c-0.1,0-0.2-0.1-0.2-0.1c0,0,0,0,0,0l-0.3-4.4c0-0.1,0.1-0.2,0.1-0.2c0,0,0,0,0,0
	c0.1,0,0.2,0,0.2,0.1c0,0,0,0,0,0l0.3,4.4C1488,134.5,1487.9,134.6,1487.8,134.6z"/>
<path class="st8" d="M1490.9,131.8L1490.9,131.8c-0.1,0-0.2-0.1-0.2-0.1c-0.1-1.2-0.2-2.4-0.2-3.6c0-0.1,0.1-0.2,0.2-0.2
	c0.1,0,0.2,0.1,0.2,0.1c0,0,0,0,0,0c0,1.2,0.1,2.4,0.2,3.6C1491,131.7,1490.9,131.8,1490.9,131.8
	C1490.9,131.8,1490.9,131.8,1490.9,131.8z"/>
<path class="st8" d="M1494,129L1494,129c-0.1,0-0.2-0.1-0.2-0.1l-0.2-2.8c0-0.1,0.1-0.2,0.1-0.2c0.1,0,0.2,0.1,0.2,0.1l0.2,2.8
	C1494.2,128.9,1494.1,129,1494,129C1494,129,1494,129,1494,129z"/>
<path class="st8" d="M1459.4,160.9L1459.4,160.9c-0.1,0-0.2,0-0.2-0.1c0,0,0,0,0,0c-0.4-4.2-0.9-8.5-1.6-12.7c0-0.1,0-0.2,0.1-0.2
	c0.1,0,0.2,0,0.2,0.1c0,0,0,0,0,0c0.6,4.2,1.2,8.5,1.6,12.8C1459.6,160.8,1459.5,160.9,1459.4,160.9
	C1459.4,160.9,1459.4,160.9,1459.4,160.9z"/>
<path class="st8" d="M1480.7,175.8c-0.2,0-0.3,0-0.4-0.2l-16.8-20.6c-0.2-0.2-0.1-0.5,0.1-0.6c0.2-0.2,22.4-19.3,36.7-31.7
	c-14.4,8.8-28.9,17.5-43.4,25.9c-0.1,0-0.2,0.1-0.3,0.1c-6.9-0.8-22.1-7.4-22.7-7.7c-0.2-0.1-0.3-0.3-0.3-0.5c0-0.2,0.1-0.4,0.3-0.4
	l71.1-21.4c0.2-0.1,0.4,0,0.5,0.1c0.1,0.1,0.2,0.3,0.1,0.5l-24.4,56.2C1481,175.7,1480.9,175.8,1480.7,175.8L1480.7,175.8z
	 M1464.5,154.8l16,19.6l23.3-53.6C1490.9,132,1467.6,152.1,1464.5,154.8z M1435.3,140.6c3.8,1.6,15.4,6.4,21.1,7
	c15.1-8.8,30.3-17.9,45.3-27.1L1435.3,140.6z"/>
<path class="st8" d="M1457.8,164.8c-0.1,0-0.1,0-0.2,0c-0.2,0-0.3-0.2-0.4-0.4l-1.7-15.4c0-0.3,0.2-0.5,0.4-0.5l0,0
	c0.3,0,0.5,0.2,0.5,0.4l1.5,14.1l5.1-8.4c0.2-0.2,0.5-0.2,0.7-0.1c0.2,0.1,0.2,0.4,0.1,0.6l-5.9,9.6
	C1458.1,164.7,1458,164.8,1457.8,164.8z"/>
<path class="st8" d="M1458.3,164.8c-0.2,0-0.3-0.1-0.4-0.2c-0.1-0.2-0.1-0.5,0.1-0.6l8.6-5.9c0.2-0.1,0.5-0.1,0.6,0.1
	c0.1,0.2,0.1,0.5-0.1,0.6l-8.6,5.9C1458.5,164.8,1458.4,164.8,1458.3,164.8z"/>
<g class="st10">
	<path class="st8" d="M1465.5,156.9c-0.1-0.2-0.2-0.4-0.3-0.6c0-0.5-0.4-0.9-1-0.9c-0.4,0-0.7,0.2-0.8,0.5c-0.5,1.1-1.1,2.2-1.8,3.2
		c-0.3,0.4-1.2,1.4-1.7,1.9c-0.6,0.3-0.8,1-0.6,1.6c0.2,0.6,0.9,0.9,1.5,0.6c0.1,0,0.2-0.1,0.3-0.1l0.2-0.2c1.1-0.9,2.3-1.6,3.5-2.4
		c0.2-0.1,0.7-0.5,0.9-0.6c0.4-0.2,0.7-0.5,0.8-0.9C1466.2,157.8,1465.8,157.7,1465.5,156.9z"/>
</g>
<polygon class="st7" points="1522.2,62.1 1545.8,29.7 1553.5,61.7 1542.1,59.1 1540.3,64.4 1534.2,58.3 "/>
<path class="st8" d="M1539.3,60.2c0,0-0.1,0-0.1,0c0,0,0,0,0,0l-4-4.2c0,0,0-0.1,0-0.1l0,0c0,0,0.1,0,0.1,0c0,0,0,0,0,0l4,4.2
	C1539.4,60.1,1539.4,60.2,1539.3,60.2C1539.3,60.2,1539.3,60.2,1539.3,60.2L1539.3,60.2z"/>
<path class="st8" d="M1539.5,57.6L1539.5,57.6c0,0-0.1,0-0.1,0c0,0,0,0,0,0c-1.1-1.2-2.2-2.4-3.4-3.5c0,0,0-0.1,0-0.1c0,0,0,0,0,0
	c0,0,0.1,0,0.1,0c0,0,0,0,0,0c1.2,1.1,2.3,2.3,3.4,3.5C1539.5,57.5,1539.5,57.5,1539.5,57.6z"/>
<path class="st8" d="M1540.1,55.4C1540.1,55.4,1540,55.4,1540.1,55.4L1540.1,55.4c-1.2-1-2.2-2.1-3.3-3.2c0,0,0-0.1,0-0.1
	c0,0,0,0,0,0l0,0c0,0,0.1,0,0.1,0c0,0,0,0,0,0c1,1.1,2.1,2.2,3.2,3.2C1540.2,55.3,1540.2,55.4,1540.1,55.4L1540.1,55.4z"/>
<path class="st8" d="M1540.4,53c0,0-0.1,0-0.1,0c-1-0.9-2-1.8-2.9-2.8c0,0,0-0.1,0-0.1c0,0,0,0,0,0l0,0c0,0,0.1,0,0.1,0c0,0,0,0,0,0
	c0.9,0.9,1.9,1.9,2.9,2.8C1540.5,52.9,1540.5,53,1540.4,53C1540.4,53,1540.4,53,1540.4,53L1540.4,53z"/>
<path class="st8" d="M1540.9,50.7c0,0-0.1,0-0.1,0c-0.8-0.8-1.6-1.7-2.4-2.5c0,0,0-0.1,0-0.1c0,0,0.1,0,0.1,0c0,0,0,0,0,0
	c0.8,0.9,1.6,1.7,2.4,2.5C1540.9,50.6,1540.9,50.6,1540.9,50.7C1540.9,50.7,1540.9,50.7,1540.9,50.7L1540.9,50.7z"/>
<path class="st8" d="M1541.7,48.4L1541.7,48.4c0,0-0.1,0-0.1,0l-2.4-2.8c0,0,0-0.1,0-0.1c0,0,0,0,0,0c0,0,0.1,0,0.1,0c0,0,0,0,0,0
	l2.4,2.8C1541.8,48.3,1541.8,48.3,1541.7,48.4C1541.7,48.4,1541.7,48.4,1541.7,48.4z"/>
<path class="st8" d="M1542.1,46.2L1542.1,46.2c0,0-0.1,0-0.1,0c0,0,0,0,0,0l-1.8-2.2c0,0,0-0.1,0-0.1c0,0,0.1,0,0.1,0l1.8,2.2
	C1542.1,46.1,1542.1,46.2,1542.1,46.2z"/>
<path class="st8" d="M1542.8,44.1L1542.8,44.1c0,0-0.1,0-0.1,0c0,0,0,0,0,0l-1.8-2.2c0,0,0-0.1,0-0.1c0,0,0,0,0,0c0,0,0.1,0,0.1,0
	c0,0,0,0,0,0l1.8,2.2C1542.8,44.1,1542.8,44.1,1542.8,44.1C1542.8,44.1,1542.8,44.1,1542.8,44.1z"/>
<path class="st8" d="M1543.3,41.8L1543.3,41.8c0,0-0.1,0-0.1,0c0,0,0,0,0,0l-1.6-1.8c0,0,0-0.1,0-0.1c0,0,0.1,0,0.1,0l1.6,1.8
	C1543.4,41.8,1543.4,41.8,1543.3,41.8z"/>
<path class="st8" d="M1543.7,39.6L1543.7,39.6c0,0-0.1,0-0.1,0c0,0,0,0,0,0c-0.4-0.5-0.9-0.9-1.3-1.5c0,0,0-0.1,0-0.1
	c0,0,0.1,0,0.1,0c0.4,0.5,0.8,1,1.2,1.5C1543.8,39.5,1543.8,39.6,1543.7,39.6z"/>
<path class="st8" d="M1544.2,37.3L1544.2,37.3c0,0-0.1,0-0.1,0c0,0,0,0,0,0l-1-1.1c0,0,0-0.1,0-0.1s0.1,0,0.1,0l0,0l1,1.1
	C1544.2,37.3,1544.2,37.3,1544.2,37.3z"/>
<path class="st8" d="M1539.7,62.7L1539.7,62.7c0,0-0.1,0-0.1,0c0,0,0,0,0,0c-1.6-1.7-3.2-3.4-4.9-5c0,0,0-0.1,0-0.1c0,0,0.1,0,0.1,0
	c1.7,1.6,3.3,3.3,4.9,5C1539.7,62.6,1539.7,62.6,1539.7,62.7C1539.7,62.6,1539.7,62.7,1539.7,62.7z"/>
<path class="st8" d="M1553.8,62.1c-0.1,0.1-0.2,0.1-0.2,0.1l-14.1-3.4c-0.1,0-0.2-0.2-0.2-0.3c0-0.2,3.4-15.8,5.5-25.9
	c-3.3,8.5-6.8,17.2-10.4,25.6c0,0.1-0.1,0.1-0.1,0.1c-3.3,1.9-12.1,4.1-12.4,4.2c-0.1,0-0.2,0-0.3-0.1c-0.1-0.1-0.1-0.2,0-0.3
	l23.9-32.8c0.1-0.1,0.2-0.1,0.3-0.1c0.1,0,0.2,0.1,0.2,0.2l7.9,32.5C1553.8,61.9,1553.8,62,1553.8,62.1L1553.8,62.1z M1539.9,58.3
	l13.5,3.3l-7.5-31C1543.8,39.7,1540.3,56.1,1539.9,58.3L1539.9,58.3z M1522.5,61.8c2.2-0.6,8.8-2.3,11.5-3.9
	c3.7-8.8,7.3-17.8,10.8-26.7L1522.5,61.8z"/>
<path class="st8" d="M1540.3,64.9C1540.3,64.9,1540.2,64.9,1540.3,64.9c-0.2,0.1-0.3,0.1-0.4,0l-5.8-6.2c-0.1-0.1-0.1-0.3,0-0.4l0,0
	c0.1-0.1,0.3-0.1,0.4,0c0,0,0,0,0,0l5.3,5.7l-0.5-5.4c0-0.1,0.1-0.3,0.2-0.3c0.1,0,0.3,0.1,0.3,0.2c0,0,0,0,0,0l0.6,6.1
	C1540.4,64.8,1540.3,64.8,1540.3,64.9z"/>
<path class="st8" d="M1540.5,64.7c-0.1,0.1-0.2,0.1-0.3,0.1c-0.1,0-0.2-0.2-0.2-0.3l1.8-5.4c0-0.1,0.2-0.2,0.3-0.2c0,0,0,0,0,0
	c0.1,0,0.2,0.2,0.2,0.3c0,0,0,0,0,0l-1.8,5.4C1540.5,64.6,1540.5,64.7,1540.5,64.7z"/>
<g class="st10">
	<path class="st8" d="M1541,58.9c-0.1-0.1-0.2-0.1-0.4-0.2c-0.1-0.3-0.5-0.3-0.7-0.2c-0.2,0.1-0.3,0.4-0.2,0.6
		c0.1,0.7,0.2,1.3,0.3,2c0,0.3-0.1,1-0.1,1.4c-0.2,0.3-0.1,0.7,0.2,0.9c0.3,0.2,0.7,0.1,0.9-0.2c0-0.1,0.1-0.1,0.1-0.2
		c0,0,0-0.1,0-0.1c0.2-0.7,0.5-1.5,0.8-2.2c0-0.1,0.2-0.5,0.2-0.5c0.1-0.2,0.1-0.5,0-0.7C1541.6,59,1541.4,59.2,1541,58.9z"/>
</g>
<polygon class="st7" points="1228.5,540.1 1188.9,526.7 1218.3,509 1219.3,521.2 1225.1,521.3 1221,529.3 "/>
<path class="st8" d="M1221.3,523.6c0,0,0,0.1,0,0.1l-2.9,5.3c0,0-0.1,0-0.1,0c0,0,0,0,0,0l0,0c0,0,0-0.1,0-0.1l2.9-5.3
	C1221.2,523.5,1221.2,523.5,1221.3,523.6C1221.3,523.6,1221.3,523.6,1221.3,523.6z"/>
<path class="st8" d="M1218.6,524.2L1218.6,524.2c0,0,0,0.1,0,0.1c-0.8,1.5-1.6,3-2.4,4.5c0,0-0.1,0-0.1,0c0,0,0,0,0,0
	c0,0,0-0.1,0-0.1c0.7-1.5,1.6-3,2.4-4.5C1218.5,524.2,1218.5,524.2,1218.6,524.2z"/>
<path class="st8" d="M1216.2,524.3C1216.2,524.4,1216.2,524.4,1216.2,524.3L1216.2,524.3c-0.7,1.5-1.4,2.9-2.2,4.2c0,0-0.1,0-0.1,0
	c0,0,0,0,0,0l0,0c0,0,0-0.1,0-0.1c0,0,0,0,0,0c0.8-1.3,1.5-2.7,2.2-4.1C1216.1,524.3,1216.1,524.2,1216.2,524.3L1216.2,524.3z"/>
<path class="st8" d="M1213.7,524.7c0,0,0,0.1,0,0.1c-0.6,1.3-1.2,2.5-1.9,3.8c0,0-0.1,0-0.1,0c0,0,0,0,0,0l0,0c0,0,0-0.1,0-0.1
	c0,0,0,0,0,0c0.7-1.2,1.3-2.5,1.9-3.8C1213.6,524.7,1213.7,524.7,1213.7,524.7L1213.7,524.7z"/>
<path class="st8" d="M1211.3,525c0,0,0,0.1,0,0.1c0,0,0,0,0,0c-0.5,1.1-1.1,2.1-1.8,3.1c0,0-0.1,0-0.1,0c0,0,0-0.1,0-0.1
	c0.6-1,1.2-2.1,1.8-3.1C1211.2,525,1211.3,525,1211.3,525C1211.3,525,1211.3,525,1211.3,525z"/>
<path class="st8" d="M1208.7,524.9L1208.7,524.9c0,0,0,0.1,0,0.1l-2,3.3c0,0-0.1,0-0.1,0c0,0,0-0.1,0-0.1c0,0,0,0,0,0l2-3.3
	C1208.6,524.9,1208.7,524.9,1208.7,524.9z"/>
<path class="st8" d="M1206.5,525.2L1206.5,525.2c0,0,0,0.1,0,0.1c0,0,0,0,0,0l-1.6,2.4c0,0-0.1,0-0.1,0c0,0,0,0,0,0c0,0,0-0.1,0-0.1
	c0,0,0,0,0,0l1.6-2.4C1206.4,525.2,1206.4,525.2,1206.5,525.2z"/>
<path class="st8" d="M1204.2,525.1L1204.2,525.1c0,0,0,0.1,0,0.1l-1.7,2.5c0,0-0.1,0-0.1,0c0,0,0-0.1,0-0.1c0,0,0,0,0,0l1.7-2.5
	C1204.1,525.1,1204.2,525.1,1204.2,525.1z"/>
<path class="st8" d="M1201.7,525.3L1201.7,525.3c0,0,0,0.1,0,0.1c0,0,0,0,0,0l-1.3,2.1c0,0-0.1,0.1-0.1,0c0,0-0.1-0.1,0-0.1l1.3-2.1
	C1201.6,525.3,1201.6,525.3,1201.7,525.3C1201.7,525.3,1201.7,525.3,1201.7,525.3z"/>
<path class="st8" d="M1199.4,525.6L1199.4,525.6c0,0,0,0.1,0,0.1c-0.3,0.6-0.7,1.2-1.1,1.7c0,0-0.1,0-0.1,0c0,0,0-0.1,0-0.1l0,0
	c0.4-0.5,0.8-1.1,1.1-1.7C1199.2,525.6,1199.3,525.6,1199.4,525.6C1199.4,525.6,1199.4,525.6,1199.4,525.6z"/>
<path class="st8" d="M1197,525.9L1197,525.9c0,0,0,0.1,0,0.1c0,0,0,0,0,0l-0.8,1.4c0,0-0.1,0-0.1,0c0,0,0-0.1,0-0.1l0.8-1.4
	C1196.9,525.8,1197,525.8,1197,525.9z"/>
<path class="st8" d="M1223.6,522.5L1223.6,522.5c0,0,0,0.1,0,0.1c-1.2,2.1-2.4,4.3-3.5,6.4c0,0-0.1,0-0.1,0c0,0,0,0,0,0
	c0,0,0-0.1,0-0.1c0,0,0,0,0,0c1.1-2.2,2.3-4.3,3.5-6.4C1223.5,522.5,1223.5,522.5,1223.6,522.5z"/>
<path class="st8" d="M1218.6,508.6c0.1,0,0.1,0.1,0.1,0.2l1,15.1c0,0.1-0.1,0.3-0.2,0.3c-0.2,0-16.8,1.6-27.5,2.6
	c9.6,0.7,19.2,1.4,28.7,2.3c0.1,0,0.1,0,0.2,0.1c2.9,2.6,7.8,10.7,8,11.1c0.1,0.1,0.1,0.2,0,0.3c-0.1,0.1-0.2,0.1-0.3,0.1
	l-40.1-13.5c-0.1,0-0.2-0.1-0.2-0.2c0-0.1,0-0.2,0.1-0.3l29.9-18C1218.4,508.5,1218.5,508.5,1218.6,508.6L1218.6,508.6z
	 M1219.2,523.7l-0.9-14.4l-28.5,17.2C1199.4,525.5,1216.8,523.9,1219.2,523.7L1219.2,523.7z M1228.1,539.9c-1.2-2-5.1-8-7.5-10.3
	c-9.9-0.9-20-1.7-29.9-2.4L1228.1,539.9z"/>
<path class="st8" d="M1225.6,521.2L1225.6,521.2c0.1,0.2,0.1,0.3,0.1,0.4l-4.3,7.7c-0.1,0.1-0.2,0.2-0.4,0.1c0,0,0,0,0,0l0,0
	c-0.1-0.1-0.2-0.2-0.1-0.4l3.9-7l-5.2,2.2c-0.1,0.1-0.3,0-0.4-0.1s0-0.3,0.1-0.4c0,0,0,0,0,0l5.9-2.5
	C1225.4,521.2,1225.5,521.2,1225.6,521.2z"/>
<path class="st8" d="M1225.4,521.1c0.1,0.1,0.2,0.2,0.1,0.4c0,0.1-0.1,0.2-0.2,0.1l-5.9-0.1c-0.2,0-0.3-0.1-0.3-0.3l0,0
	c0-0.1,0.1-0.3,0.3-0.3l5.9,0.1C1225.3,521,1225.3,521,1225.4,521.1z"/>
<g class="st10">
	<path class="st8" d="M1219.4,522.4c0,0.1-0.1,0.3-0.1,0.4c-0.2,0.2-0.1,0.6,0.1,0.8c0.2,0.1,0.4,0.1,0.6,0c0.6-0.3,1.2-0.6,1.9-0.9
		c0.3-0.1,1-0.3,1.4-0.3c0.4-0.1,0.7-0.1,0.8-0.5c0.1-0.3-0.1-0.7-0.5-0.8c-0.1,0-0.1,0-0.2,0h-0.1c-0.8,0-1.6,0-2.4-0.1h-0.6
		c-0.2-0.1-0.5,0-0.7,0.2C1219.4,521.7,1219.6,521.9,1219.4,522.4z"/>
</g>
<polygon class="st7" points="374.6,98.3 372.2,105.9 364.6,105.9 370.8,110.7 368.4,118.3 374.6,113.6 380.8,118.3 378.4,110.7 
	384.6,105.9 377,105.9 "/>
<path class="st8" d="M380.8,119.1c-0.2,0-0.3-0.1-0.5-0.2l-5.7-4.4l-5.7,4.4c-0.3,0.2-0.8,0.2-1-0.1c-0.1-0.2-0.2-0.4-0.1-0.7
	l2.2-7.2l-5.8-4.4c-0.3-0.2-0.4-0.5-0.3-0.8c0.1-0.3,0.4-0.5,0.7-0.5h7.1l2.2-7.1c0.1-0.3,0.4-0.5,0.7-0.5l0,0
	c0.3,0,0.6,0.2,0.7,0.5l2.2,7.1h7.1c0.3,0,0.6,0.2,0.7,0.5c0.1,0.3,0,0.6-0.3,0.8l-5.8,4.4l2.2,7.2c0.1,0.3,0,0.6-0.3,0.8
	C381.1,119,381,119.1,380.8,119.1z M366.7,106.7l4.5,3.4c0.2,0.2,0.3,0.5,0.3,0.8l-1.7,5.4l4.3-3.3c0.3-0.2,0.7-0.2,0.9,0l4.3,3.3
	l-1.7-5.4c-0.1-0.3,0-0.6,0.3-0.8l4.4-3.4H377c-0.3,0-0.6-0.2-0.7-0.5l-1.7-5.4l-1.7,5.4c-0.1,0.3-0.4,0.5-0.7,0.5H366.7z"/>
<polygon class="st7" points="342.2,98.3 339.8,105.9 332.1,105.9 338.3,110.7 336,118.3 342.2,113.6 348.4,118.3 346,110.7 
	352.2,105.9 344.5,105.9 "/>
<path class="st8" d="M348.4,119.1c-0.2,0-0.3-0.1-0.5-0.2l-5.7-4.4l-5.7,4.4c-0.3,0.2-0.8,0.2-1-0.1c-0.1-0.2-0.2-0.4-0.1-0.7
	l2.3-7.2l-5.8-4.4c-0.3-0.2-0.4-0.5-0.3-0.8c0.1-0.3,0.4-0.5,0.7-0.5h7.1l2.2-7.1c0.1-0.3,0.4-0.5,0.7-0.5l0,0
	c0.3,0,0.6,0.2,0.7,0.5l2.1,7.1h7.1c0.3,0,0.6,0.2,0.7,0.5c0.1,0.3,0,0.6-0.3,0.8l-5.8,4.4l2.2,7.2c0.1,0.3,0,0.6-0.3,0.8
	C348.6,119,348.5,119.1,348.4,119.1z M334.3,106.7l4.4,3.4c0.3,0.2,0.4,0.5,0.3,0.8l-1.7,5.4l4.3-3.3c0.3-0.2,0.7-0.2,0.9,0l4.3,3.3
	l-1.7-5.4c-0.1-0.3,0-0.6,0.3-0.8l4.5-3.4h-5.5c-0.3,0-0.6-0.2-0.7-0.5l-1.7-5.4l-1.7,5.4c-0.1,0.3-0.4,0.5-0.7,0.5H334.3z"/>
<polygon class="st7" points="374.6,98.3 372.2,105.9 364.6,105.9 370.8,110.7 368.4,118.3 374.6,113.6 380.8,118.3 378.4,110.7 
	384.6,105.9 377,105.9 "/>
<path class="st7" d="M380.8,119.1c-0.2,0-0.3-0.1-0.5-0.2l-5.7-4.4l-5.7,4.4c-0.3,0.2-0.8,0.2-1-0.1c-0.1-0.2-0.2-0.4-0.1-0.7
	l2.2-7.2l-5.8-4.4c-0.3-0.2-0.4-0.5-0.3-0.8c0.1-0.3,0.4-0.5,0.7-0.5h7.1l2.2-7.1c0.1-0.3,0.4-0.5,0.7-0.5l0,0
	c0.3,0,0.6,0.2,0.7,0.5l2.2,7.1h7.1c0.3,0,0.6,0.2,0.7,0.5c0.1,0.3,0,0.6-0.3,0.8l-5.8,4.4l2.2,7.2c0.1,0.3,0,0.6-0.3,0.8
	C381.1,119,381,119.1,380.8,119.1z M366.7,106.7l4.5,3.4c0.2,0.2,0.3,0.5,0.3,0.8l-1.7,5.4l4.3-3.3c0.3-0.2,0.7-0.2,0.9,0l4.3,3.3
	l-1.7-5.4c-0.1-0.3,0-0.6,0.3-0.8l4.4-3.4H377c-0.3,0-0.6-0.2-0.7-0.5l-1.7-5.4l-1.7,5.4c-0.1,0.3-0.4,0.5-0.7,0.5H366.7z"/>
<polygon class="st7" points="342.2,98.3 339.8,105.9 332.1,105.9 338.3,110.7 336,118.3 342.2,113.6 348.4,118.3 346,110.7 
	352.2,105.9 344.5,105.9 "/>
<path class="st7" d="M348.4,119.1c-0.2,0-0.3-0.1-0.5-0.2l-5.7-4.4l-5.7,4.4c-0.3,0.2-0.8,0.2-1-0.1c-0.1-0.2-0.2-0.4-0.1-0.7
	l2.3-7.2l-5.8-4.4c-0.3-0.2-0.4-0.5-0.3-0.8c0.1-0.3,0.4-0.5,0.7-0.5h7.1l2.2-7.1c0.1-0.3,0.4-0.5,0.7-0.5l0,0
	c0.3,0,0.6,0.2,0.7,0.5l2.1,7.1h7.1c0.3,0,0.6,0.2,0.7,0.5c0.1,0.3,0,0.6-0.3,0.8l-5.8,4.4l2.2,7.2c0.1,0.3,0,0.6-0.3,0.8
	C348.6,119,348.5,119.1,348.4,119.1z M334.3,106.7l4.4,3.4c0.3,0.2,0.4,0.5,0.3,0.8l-1.7,5.4l4.3-3.3c0.3-0.2,0.7-0.2,0.9,0l4.3,3.3
	l-1.7-5.4c-0.1-0.3,0-0.6,0.3-0.8l4.5-3.4h-5.5c-0.3,0-0.6-0.2-0.7-0.5l-1.7-5.4l-1.7,5.4c-0.1,0.3-0.4,0.5-0.7,0.5H334.3z"/>
<polygon class="st7" points="1736.9,485.7 1734.1,494.8 1725,494.8 1732.3,500.4 1729.5,509.5 1736.9,503.9 1744.2,509.5 
	1741.4,500.4 1748.8,494.8 1739.7,494.8 "/>
<path class="st8" d="M1744.2,510.4c-0.2,0-0.4-0.1-0.5-0.2l-6.8-5.2l-6.8,5.2c-0.4,0.3-0.9,0.2-1.2-0.2c-0.2-0.2-0.2-0.5-0.1-0.8
	l2.6-8.5l-6.9-5.2c-0.3-0.2-0.4-0.6-0.3-1c0.1-0.4,0.5-0.6,0.8-0.6h8.5l2.6-8.5c0.1-0.4,0.5-0.6,0.8-0.6l0,0c0.4,0,0.7,0.3,0.8,0.6
	l2.6,8.5h8.5c0.4,0,0.7,0.3,0.8,0.6c0.1,0.4,0,0.7-0.3,1l-6.9,5.2l2.6,8.5c0.1,0.5-0.1,1-0.6,1.1
	C1744.5,510.4,1744.4,510.4,1744.2,510.4L1744.2,510.4z M1727.6,495.6l5.3,4c0.3,0.2,0.4,0.6,0.3,0.9l-2,6.4l5.2-3.9
	c0.3-0.2,0.8-0.2,1.1,0l5.2,3.9l-2-6.4c-0.1-0.3,0-0.7,0.3-0.9l5.3-4h-6.5c-0.4,0-0.7-0.3-0.8-0.6l-2-6.4l-2,6.4
	c-0.1,0.4-0.5,0.6-0.8,0.6L1727.6,495.6z"/>
<polygon class="st7" points="1698.4,485.7 1695.5,494.8 1686.5,494.8 1693.8,500.4 1691,509.5 1698.4,503.9 1705.7,509.5 
	1702.9,500.4 1710.3,494.8 1701.2,494.8 "/>
<path class="st8" d="M1705.7,510.4c-0.2,0-0.4-0.1-0.5-0.2l-6.8-5.2l-6.8,5.2c-0.4,0.3-0.9,0.2-1.2-0.2c-0.2-0.2-0.2-0.5-0.1-0.8
	l2.6-8.5l-6.9-5.2c-0.4-0.3-0.5-0.9-0.2-1.2c0.2-0.2,0.4-0.4,0.7-0.4h8.5l2.6-8.5c0.1-0.4,0.5-0.6,0.8-0.6l0,0
	c0.4,0,0.7,0.2,0.8,0.6l2.6,8.5h8.5c0.5,0,0.9,0.4,0.9,0.9c0,0.3-0.1,0.5-0.4,0.7l-6.9,5.2l2.6,8.5c0.1,0.4,0,0.8-0.3,1
	C1706.1,510.3,1705.9,510.4,1705.7,510.4z M1689.1,495.6l5.3,4c0.3,0.2,0.4,0.6,0.3,0.9l-2,6.4l5.2-3.9c0.3-0.2,0.8-0.2,1.1,0
	l5.2,3.9l-2-6.4c-0.1-0.3,0-0.7,0.3-0.9l5.3-4h-6.5c-0.4,0-0.7-0.3-0.8-0.6l-2-6.4l-2,6.4c-0.1,0.4-0.5,0.6-0.8,0.6L1689.1,495.6z"
	/>
<polygon class="st7" points="1736.9,485.7 1734.1,494.8 1725,494.8 1732.3,500.4 1729.5,509.5 1736.9,503.9 1744.2,509.5 
	1741.4,500.4 1748.8,494.8 1739.7,494.8 "/>
<path class="st7" d="M1744.2,510.4c-0.2,0-0.4-0.1-0.5-0.2l-6.8-5.2l-6.8,5.2c-0.4,0.3-0.9,0.2-1.2-0.2c-0.2-0.2-0.2-0.5-0.1-0.8
	l2.6-8.5l-6.9-5.2c-0.3-0.2-0.4-0.6-0.3-1c0.1-0.4,0.5-0.6,0.8-0.6h8.5l2.6-8.5c0.1-0.4,0.5-0.6,0.8-0.6l0,0c0.4,0,0.7,0.3,0.8,0.6
	l2.6,8.5h8.5c0.4,0,0.7,0.3,0.8,0.6c0.1,0.4,0,0.7-0.3,1l-6.9,5.2l2.6,8.5c0.1,0.5-0.1,1-0.6,1.1
	C1744.5,510.4,1744.4,510.4,1744.2,510.4L1744.2,510.4z M1727.6,495.6l5.3,4c0.3,0.2,0.4,0.6,0.3,0.9l-2,6.4l5.2-3.9
	c0.3-0.2,0.8-0.2,1.1,0l5.2,3.9l-2-6.4c-0.1-0.3,0-0.7,0.3-0.9l5.3-4h-6.5c-0.4,0-0.7-0.3-0.8-0.6l-2-6.4l-2,6.4
	c-0.1,0.4-0.5,0.6-0.8,0.6L1727.6,495.6z"/>
<polygon class="st7" points="1698.4,485.7 1695.5,494.8 1686.5,494.8 1693.8,500.4 1691,509.5 1698.4,503.9 1705.7,509.5 
	1702.9,500.4 1710.3,494.8 1701.2,494.8 "/>
<path class="st7" d="M1705.7,510.4c-0.2,0-0.4-0.1-0.5-0.2l-6.8-5.2l-6.8,5.2c-0.4,0.3-0.9,0.2-1.2-0.2c-0.2-0.2-0.2-0.5-0.1-0.8
	l2.6-8.5l-6.9-5.2c-0.4-0.3-0.5-0.9-0.2-1.2c0.2-0.2,0.4-0.4,0.7-0.4h8.5l2.6-8.5c0.1-0.4,0.5-0.6,0.8-0.6l0,0
	c0.4,0,0.7,0.2,0.8,0.6l2.6,8.5h8.5c0.5,0,0.9,0.4,0.9,0.9c0,0.3-0.1,0.5-0.4,0.7l-6.9,5.2l2.6,8.5c0.1,0.4,0,0.8-0.3,1
	C1706.1,510.3,1705.9,510.4,1705.7,510.4z M1689.1,495.6l5.3,4c0.3,0.2,0.4,0.6,0.3,0.9l-2,6.4l5.2-3.9c0.3-0.2,0.8-0.2,1.1,0
	l5.2,3.9l-2-6.4c-0.1-0.3,0-0.7,0.3-0.9l5.3-4h-6.5c-0.4,0-0.7-0.3-0.8-0.6l-2-6.4l-2,6.4c-0.1,0.4-0.5,0.6-0.8,0.6L1689.1,495.6z"
	/>
<circle class="st7" cx="1315" cy="217.3" r="15.8"/>
<path class="st8" d="M1315,233.6c-9,0-16.3-7.3-16.3-16.3c0-9,7.3-16.3,16.3-16.3c9,0,16.3,7.3,16.3,16.3
	C1331.3,226.3,1324,233.5,1315,233.6z M1315,202c-8.4,0-15.3,6.8-15.3,15.3c0,8.4,6.8,15.3,15.3,15.3c8.4,0,15.3-6.8,15.3-15.3
	c0,0,0,0,0,0C1330.3,208.8,1323.4,202,1315,202L1315,202z"/>
<polygon class="st9" points="1308.5,225.5 1308.5,210.2 1320.7,210.2 1320.7,225.5 1315,220.4 "/>
<path class="st8" d="M1320.7,226c-0.1,0-0.3,0-0.3-0.1l-5.4-4.7l-6.2,4.7c-0.2,0.1-0.4,0.1-0.5,0.1c-0.2-0.1-0.3-0.3-0.3-0.5v-15.3
	c0-0.3,0.2-0.5,0.5-0.5l0,0h12.3c0.3,0,0.5,0.2,0.5,0.5c0,0,0,0,0,0v15.2c0,0.2-0.1,0.4-0.3,0.5C1320.8,226,1320.7,226,1320.7,226z
	 M1309,210.8v13.7l5.7-4.4c0.2-0.2,0.5-0.2,0.7,0l4.8,4.3v-13.6L1309,210.8z"/>
<circle class="st7" cx="1419.6" cy="542.8" r="5.2"/>
<path class="st7" d="M1419.6,548.6c-3.2,0-5.9-2.6-5.9-5.9s2.6-5.9,5.9-5.9c3.2,0,5.9,2.6,5.9,5.9c0,0,0,0,0,0
	C1425.5,546,1422.9,548.6,1419.6,548.6z M1419.6,538.3c-2.5,0-4.5,2-4.5,4.5s2,4.5,4.5,4.5c2.5,0,4.5-2,4.5-4.5c0,0,0,0,0,0
	C1424.1,540.3,1422.1,538.3,1419.6,538.3L1419.6,538.3z"/>
<circle class="st7" cx="1444.7" cy="542.8" r="5.2"/>
<path class="st7" d="M1444.7,548.6c-3.2,0-5.9-2.6-5.9-5.9c0-3.2,2.6-5.9,5.9-5.9s5.9,2.6,5.9,5.9c0,0,0,0,0,0
	C1450.5,546,1447.9,548.6,1444.7,548.6z M1444.7,538.3c-2.5,0-4.5,2-4.5,4.5c0,2.5,2,4.5,4.5,4.5c2.5,0,4.5-2,4.5-4.5c0,0,0,0,0,0
	C1449.1,540.3,1447.1,538.3,1444.7,538.3L1444.7,538.3z"/>
<circle class="st7" cx="1444.7" cy="542.8" r="5.2"/>
<path class="st7" d="M1444.7,548.6c-3.2,0-5.9-2.6-5.9-5.9c0-3.2,2.6-5.9,5.9-5.9s5.9,2.6,5.9,5.9c0,0,0,0,0,0
	C1450.5,546,1447.9,548.6,1444.7,548.6z M1444.7,538.3c-2.5,0-4.5,2-4.5,4.5c0,2.5,2,4.5,4.5,4.5c2.5,0,4.5-2,4.5-4.5c0,0,0,0,0,0
	C1449.1,540.3,1447.1,538.3,1444.7,538.3L1444.7,538.3z"/>
<path class="st7" d="M901.1,166.9h-69.5c-0.5,0-0.8-0.5-0.7-0.9c0-0.4,0.3-0.7,0.7-0.7h69.5c0.5,0,0.9,0.3,0.9,0.7
	c0,0.5-0.3,0.9-0.7,0.9C901.2,166.9,901.1,166.9,901.1,166.9z"/>
<path class="st7" d="M901.1,190.8h-69.5c-0.5,0-0.8-0.5-0.7-0.9c0-0.4,0.3-0.7,0.7-0.7h69.5c0.5,0,0.9,0.3,0.9,0.7
	c0,0.5-0.3,0.9-0.7,0.9C901.2,190.8,901.1,190.8,901.1,190.8z"/>
<path class="st7" d="M901.1,166.9h-69.5c-0.5,0-0.8-0.5-0.7-0.9c0-0.4,0.3-0.7,0.7-0.7h69.5c0.5,0,0.9,0.3,0.9,0.7
	c0,0.5-0.3,0.9-0.7,0.9C901.2,166.9,901.1,166.9,901.1,166.9z"/>
<path class="st7" d="M901.1,190.8h-69.5c-0.5,0-0.8-0.5-0.7-0.9c0-0.4,0.3-0.7,0.7-0.7h69.5c0.5,0,0.9,0.3,0.9,0.7
	c0,0.5-0.3,0.9-0.7,0.9C901.2,190.8,901.1,190.8,901.1,190.8z"/>
<path class="st7" d="M849.7,166c0-2.2,1.8-4,4-4s4,1.8,4,4c0,2.2-1.8,4-4,4c0,0,0,0,0,0C851.5,170,849.7,168.3,849.7,166z"/>
<path class="st8" d="M853.7,170.9c-2.7,0-4.8-2.2-4.8-4.8c0-2.7,2.2-4.8,4.8-4.8c2.7,0,4.8,2.2,4.8,4.8c0,0,0,0,0,0
	C858.5,168.7,856.4,170.9,853.7,170.9z M853.7,162.9c-1.8,0-3.2,1.4-3.2,3.2c0,1.8,1.4,3.2,3.2,3.2c1.8,0,3.2-1.4,3.2-3.2
	C856.9,164.3,855.5,162.9,853.7,162.9L853.7,162.9z"/>
<path class="st9" d="M877.2,189.9c0-2.2,1.8-4,4-4s4,1.8,4,4s-1.8,4-4,4S877.2,192.1,877.2,189.9L877.2,189.9z"/>
<path class="st8" d="M881.2,194.7c-2.7,0-4.8-2.2-4.8-4.8c0-2.7,2.2-4.8,4.8-4.8c2.7,0,4.8,2.2,4.8,4.8v0
	C886,192.6,883.8,194.7,881.2,194.7z M881.2,186.7c-1.8,0-3.2,1.4-3.2,3.2c0,1.8,1.4,3.2,3.2,3.2c1.8,0,3.2-1.4,3.2-3.2
	C884.4,188.2,882.9,186.7,881.2,186.7L881.2,186.7z"/>
<ellipse transform="matrix(0.1602 -0.9871 0.9871 0.1602 325.9357 1456.0851)" class="st9" cx="1018.7" cy="536.5" rx="25.9" ry="25.9"/>
<path class="st8" d="M1018.7,563.2c-14.8,0-26.7-12-26.7-26.7c0-14.8,12-26.7,26.7-26.7c14.7,0,26.7,12,26.7,26.7
	C1045.4,551.3,1033.4,563.2,1018.7,563.2z M1018.7,511.5c-13.8,0-25,11.2-25,25s11.2,25,25,25c13.8,0,25-11.2,25-25c0,0,0,0,0,0
	C1043.7,522.7,1032.5,511.5,1018.7,511.5z"/>
<path class="st7" d="M1019,547.8l-9.8-13.8c-1.6-2.3-1.1-5.4,1.1-7.1c2.2-1.6,5.3-1.2,6.9,1c0,0,0.1,0.1,0.1,0.1l1.7,2.4l1.7-2.4
	c1.5-2.2,4.6-2.8,6.8-1.2c0,0,0.1,0.1,0.1,0.1c2.2,1.7,2.7,4.8,1.1,7.1L1019,547.8z"/>
<path class="st8" d="M1019,548.7c-0.3,0-0.5-0.1-0.7-0.4l-9.8-13.8c-1.9-2.7-1.3-6.3,1.3-8.3c2.6-1.9,6.2-1.4,8.1,1.2
	c0,0,0.1,0.1,0.1,0.1l1,1.4l1-1.4c1.8-2.6,5.4-3.2,8-1.4c0,0,0.1,0.1,0.1,0.1c2.6,2,3.2,5.6,1.3,8.3l-9.8,13.9
	C1019.5,548.6,1019.3,548.7,1019,548.7z M1013.3,526.8c-0.9,0-1.7,0.3-2.4,0.8c-1.9,1.4-2.3,4-0.9,6l9.1,12.8l9.1-12.8
	c1.4-1.9,0.9-4.6-0.9-6c-0.9-0.7-2-0.9-3.1-0.8c-1.1,0.2-2.1,0.8-2.7,1.7l-1.7,2.4c-0.2,0.2-0.4,0.4-0.7,0.4l0,0
	c-0.3,0-0.5-0.1-0.7-0.4l-1.7-2.4c-0.6-0.9-1.6-1.5-2.7-1.7C1013.7,526.8,1013.5,526.8,1013.3,526.8L1013.3,526.8z"/>
<ellipse transform="matrix(0.2312 -0.9729 0.9729 0.2312 548.6172 1072.6018)" class="st7" cx="953" cy="189.2" rx="14.1" ry="14.1"/>
<path class="st8" d="M953,203.7c-8,0-14.5-6.5-14.5-14.5c0-8,6.5-14.5,14.5-14.5s14.5,6.5,14.5,14.5
	C967.5,197.2,961,203.7,953,203.7z M953,175.6c-7.5,0-13.6,6.1-13.6,13.6c0,7.5,6.1,13.6,13.6,13.6c7.5,0,13.6-6.1,13.6-13.6v0
	C966.6,181.6,960.5,175.6,953,175.6z"/>
<path class="st8" d="M959.4,189.6h-12.7c-0.3,0-0.5-0.2-0.5-0.5c0-0.3,0.2-0.5,0.5-0.5h12.7c0.3,0,0.5,0.2,0.5,0.5
	C959.9,189.4,959.6,189.6,959.4,189.6z"/>
<path class="st8" d="M959.4,195h-12.7c-0.3,0-0.5-0.2-0.5-0.5c0-0.3,0.2-0.5,0.5-0.5h12.7c0.3,0,0.5,0.2,0.5,0.5
	C959.9,194.8,959.6,195,959.4,195z"/>
<path class="st8" d="M959.4,184.2h-12.7c-0.3,0-0.5-0.2-0.5-0.5c0-0.3,0.2-0.5,0.5-0.5h12.7c0.3,0,0.5,0.2,0.5,0.5
	C959.9,184,959.6,184.2,959.4,184.2z"/>
<ellipse transform="matrix(0.2312 -0.9729 0.9729 0.2312 548.6172 1072.6018)" class="st7" cx="953" cy="189.2" rx="14.1" ry="14.1"/>
<path class="st8" d="M953,203.7c-8,0-14.5-6.5-14.5-14.5c0-8,6.5-14.5,14.5-14.5s14.5,6.5,14.5,14.5
	C967.5,197.2,961,203.7,953,203.7z M953,175.6c-7.5,0-13.6,6.1-13.6,13.6c0,7.5,6.1,13.6,13.6,13.6c7.5,0,13.6-6.1,13.6-13.6v0
	C966.6,181.6,960.5,175.6,953,175.6z"/>
<path class="st8" d="M959.4,189.6h-12.7c-0.3,0-0.5-0.2-0.5-0.5c0-0.3,0.2-0.5,0.5-0.5h12.7c0.3,0,0.5,0.2,0.5,0.5
	C959.9,189.4,959.6,189.6,959.4,189.6z"/>
<path class="st8" d="M959.4,195h-12.7c-0.3,0-0.5-0.2-0.5-0.5c0-0.3,0.2-0.5,0.5-0.5h12.7c0.3,0,0.5,0.2,0.5,0.5
	C959.9,194.8,959.6,195,959.4,195z"/>
<path class="st8" d="M959.4,184.2h-12.7c-0.3,0-0.5-0.2-0.5-0.5c0-0.3,0.2-0.5,0.5-0.5h12.7c0.3,0,0.5,0.2,0.5,0.5
	C959.9,184,959.6,184.2,959.4,184.2z"/>
<g class="st10">
	<path class="st8" d="M967.3,187.2c-0.2,0.2-0.3,0.4-0.3,0.7c-0.2,0.6-0.4,1.2-0.5,1.8c-0.3,1.3-0.8,2.6-1.5,3.8
		c-1.8,3.3-3.6,4.8-7.3,6.5c-2.1,1-3.8,1.3-6.8,1.1c-1.5-0.2-3-0.5-4.5-0.9c-0.9-0.3-1.7-0.7-2.4-1.2c-0.9-0.5-1.8-1.1-2.5-1.9
		c-0.4-0.4-0.9-0.9-1.3-1.4c-0.1-0.1-0.1-0.1-0.2-0.2c0.3,0.6,0.6,1.3,0.9,1.9l0.6,0.7c0.6,0.7,1.2,1.4,1.9,2.1
		c0.3,0.2,0.6,0.4,0.9,0.5c3.9,2.1,8.3,2.9,12.7,2.3c3.9-1.4,7.7-4.1,9.6-7.9c0.1-0.2,0.2-0.4,0.3-0.6c0.1-0.2,0.1-0.3,0.1-0.5
		c0.1-2.3,0.3-4.6,0.6-6.9C967.5,187.1,967.4,187.2,967.3,187.2z"/>
</g>
<path class="st7" d="M1147.8,78.8h60.2c11.3,0,20.4,9.1,20.4,20.4c0,0,0,0,0,0l-0.3,14.7c0,9.1-6.1,17.2-14.9,19.6l4.2,22.6
	l-18.8-21.8h-51.1c-11.3,0-20.4-9.1-20.4-20.4c0,0,0,0,0,0l0.3-14.7C1127.4,87.9,1136.5,78.8,1147.8,78.8z"/>
<path class="st8" d="M1217.4,156.8c-0.2,0-0.4-0.1-0.5-0.2l-18.6-21.6h-50.8c-11.6,0-21.1-9.4-21.1-21.1l0.3-14.8
	c0-11.6,9.4-21.1,21.1-21.1h60.2c11.6,0,21.1,9.4,21.1,21.1l-0.3,14.8c0,9.2-6,17.3-14.8,20.1l4,22c0.1,0.3-0.1,0.6-0.4,0.7
	C1217.6,156.8,1217.5,156.8,1217.4,156.8z M1147.8,79.4c-10.9,0-19.7,8.8-19.7,19.7l-0.3,14.8c0,10.9,8.8,19.7,19.7,19.7h51.1
	c0.2,0,0.4,0.1,0.5,0.2l17.2,19.9l-3.7-20.2c-0.1-0.4,0.1-0.7,0.5-0.8c8.5-2.4,14.4-10.2,14.4-19l0.3-14.8
	c0-10.9-8.8-19.7-19.7-19.7L1147.8,79.4z"/>
<circle class="st9" cx="1153.7" cy="105.7" r="5"/>
<path class="st8" d="M1153.7,111.3c-3.1,0-5.6-2.5-5.6-5.6s2.5-5.6,5.6-5.6s5.6,2.5,5.6,5.6S1156.8,111.3,1153.7,111.3z
	 M1153.7,101.4c-2.4,0-4.3,1.9-4.3,4.3c0,2.4,1.9,4.3,4.3,4.3c2.4,0,4.3-1.9,4.3-4.3c0,0,0,0,0,0
	C1158,103.3,1156.1,101.4,1153.7,101.4z"/>
<circle class="st9" cx="1177.8" cy="105.7" r="5"/>
<path class="st8" d="M1177.8,111.3c-3.1,0-5.6-2.5-5.6-5.6s2.5-5.6,5.6-5.6s5.6,2.5,5.6,5.6S1180.9,111.3,1177.8,111.3z
	 M1177.8,101.4c-2.4,0-4.3,1.9-4.3,4.3c0,2.4,1.9,4.3,4.3,4.3c2.4,0,4.3-1.9,4.3-4.3c0,0,0,0,0,0
	C1182,103.3,1180.1,101.4,1177.8,101.4z"/>
<circle class="st9" cx="1201.8" cy="105.7" r="5"/>
<path class="st8" d="M1201.8,111.3c-3.1,0-5.6-2.5-5.6-5.6s2.5-5.6,5.6-5.6s5.6,2.5,5.6,5.6S1204.9,111.3,1201.8,111.3z
	 M1201.8,101.4c-2.4,0-4.3,1.9-4.3,4.3c0,2.4,1.9,4.3,4.3,4.3c2.4,0,4.3-1.9,4.3-4.3c0,0,0,0,0,0
	C1206.1,103.3,1204.2,101.4,1201.8,101.4z"/>
<g class="st10">
	<path class="st8" d="M1217.1,150.7c-1.5-4.3-1.5-11.6-2.6-18c2.9-1,5.8-2.3,8.5-3.8c0.1-0.1,0.1-0.2,0.2-0.3
		c0.9-1.6,1.9-3.2,2.9-4.7l1-1.6l0.5-1l0.3-0.8c-0.3,0.3-0.6,0.6-0.9,1c-1.8,1.8-3.9,3.3-6.3,4.4c-3.5,1.7-5.6,2.6-8.4,3.8
		c-2,1.1-1.2,3.4-0.9,5.2c0.5,2.3,0.7,4.6,1.1,6.9c0.2,1.1,0.3,2.3,0.5,3.4c-0.4-0.5-0.8-1-1.2-1.4c-1.8-2.2-3.8-4.1-5.8-6.2
		c-1.5-1.8-3-3.6-4.7-5.2c-1.9-1.9-4.5-1.6-7.9-1.6c-4,0.1-8,0.2-12,0.4c-9.9,0.1-19.9,0.3-29.8-0.4c-2.5-0.3-5.1-0.8-7.5-1.5
		c-1.1-0.2-2.3-0.4-3.5-0.7c-1.4-0.4-2.8-0.9-4.1-1.4l-0.1,0c-1.6-0.7-3.1-1.5-4.7-2.2c-1-0.5-1.2-0.5-1.5-0.7
		c-0.4-0.2-0.8-0.4-1.2-0.5l0,0c1.6,2.1,3.2,4.2,4.9,6.2c1.4,0.7,2.8,1.3,4.2,1.9c1.6,0.6,3.2,1,4.8,1.2c1.3,0.3,2.5,0.8,3.9,1
		c4.3,0.9,8.6,1,13,1c7.1,0.2,14.2,0,21.2,0c3.4-0.1,6.7-0.1,10.1-0.3c2.4-0.1,4.8-0.2,7.3-0.1h0.1l0.4,0.2c0.5,0.4,1,0.9,1.5,1.4
		c1,1.1,2,2.4,3,3.6c1.2,1.5,2.7,2.7,3.9,4.1c1.8,1.9,3.4,3.9,4.9,5.9c0.8,1.3,1.7,2.6,2.6,3.8l0.1,0.2c0.1,0.1,0.2,0.2,0.3,0.3
		c0.3,0.3,0.7,0.4,1.1,0.3c0.8-0.1,1.3-0.7,1.3-1.5c0-0.4-0.2-0.8-0.4-1.2C1217.3,151.4,1217.3,151,1217.1,150.7z"/>
</g>
<path class="st7" d="M147.6,205.2c10.8,10.1,20.8,20.9,30,32.5c4.9,6.1,10,12.8,17.5,15.1c1.6,0.6,3.4,0.7,5,0.4
	c2.5-0.7,4.4-2.6,5.3-5c0.8-2.4,0.9-4.9,0.4-7.4c-0.2-1.9-0.9-3.8-1.9-5.4c-1-1.5-2.3-2.8-3.8-3.8c-4.4-2.9-3-4.6-4-8
	c-3.2-9.8-18-8.7-24.6-16.8c1.4-1.1,2.8-2.3,3.9-3.6c1.2-1.4,1.8-3.1,1.8-4.9c-0.1-2.7-2-4.9-3.8-7.1c19-8.1,38.7-14.2,59-18
	c-5.1-8.2-9.4-16.9-13.7-25.6c-5.8-11.8-11.6-23.6-17.7-34.7c-11.9,13.7-26.9,24.4-41.6,35c-10.2,7.3-20.4,14.6-31.4,20.6
	c-5.8,3.2-12.4,6.6-14.7,12.8c-1.5,3.9-0.8,8.3,0.8,12.2c1.6,3.8,4.2,7.2,6.9,10.5c2.2,2.7,4.7,5.6,8.4,6.2
	C135.8,209.8,142,208.1,147.6,205.2z"/>
<path class="st7" d="M225.5,121c3.9,9.9,8.7,19.4,14.3,28.4c3-0.7,5.3-3.4,6.3-6.3c1-2.9,0.9-6,0.7-9.1c0-1.3-0.2-2.5-0.6-3.7
	c-0.5-1-1.1-2-1.8-2.9c-1.6-2.3-3.6-4.2-6-5.7C234.4,119.5,229.7,119.2,225.5,121z"/>
<path class="st9" d="M232.2,174.1c-10.3-20.9-20.6-41.7-30.9-62.9c4.5-4.8,7.9-10.6,9.9-16.8c0,0,41.3,80.2,41.3,79.9
	C245.8,172.4,238.8,172.4,232.2,174.1z"/>
<path class="st8" d="M162.2,197c-0.4,0-0.8-0.2-1-0.5c-6.9-12.2-13-24.8-18.2-37.8c-0.2-0.4,0-0.9,0.3-1.2c4.1-3,8.3-5.9,12.4-8.8
	c23.7-16.7,48.1-33.9,54.1-55.7c0.1-0.4,0.5-0.7,0.9-0.7c0.4,0,0.8,0.2,1,0.6l41.9,81.2c0.2,0.5,0,1.1-0.5,1.4
	c-0.2,0.1-0.4,0.1-0.6,0.1c-0.3,0.2-0.6,0.3-0.9,0.2c-25.2-7.6-88.5,21.1-89.1,21.3C162.5,197,162.3,197,162.2,197z M145.3,158.7
	c5,12.3,10.8,24.4,17.4,36c8-3.6,63.2-27.7,88.5-21.4l-39.9-77.4c-7.2,21.4-31.1,38.1-54.2,54.4
	C153.1,153.1,149.1,155.9,145.3,158.7z"/>
<path class="st8" d="M231.7,173.4c-0.4,0-0.8-0.2-1-0.6L201,113.4c-0.2-0.5-0.1-1.1,0.4-1.3c0,0,0,0,0,0c0.5-0.2,1.1,0,1.4,0.5
	l29.7,59.5c0.2,0.5,0,1.1-0.5,1.4C232,173.4,231.9,173.4,231.7,173.4z"/>
<path class="st8" d="M240.9,150.7c-0.3,0-0.7-0.1-0.9-0.4c-0.4-0.4-0.3-1.1,0.1-1.4c0,0,0,0,0.1,0c6.8-5.1,8.2-14.8,3-21.6
	c-0.1-0.1-0.2-0.2-0.3-0.4c-1.3-1.6-2.9-2.9-4.6-3.9c-3.1-1.8-7.8-3-11.4-0.8c-0.5,0.3-1.1,0.1-1.4-0.3c-0.3-0.5-0.2-1.1,0.3-1.4
	c0,0,0,0,0,0c4.4-2.7,9.9-1.4,13.6,0.8c2,1.1,3.7,2.6,5.2,4.4c6,7.5,4.8,18.5-2.7,24.5c-0.1,0.1-0.3,0.2-0.4,0.3
	C241.3,150.6,241.1,150.7,240.9,150.7z"/>
<path class="st8" d="M133.1,211.2c-1.7,0.1-3.5-0.1-5.1-0.7c-4.2-1.5-6.9-5.3-9.6-9.3c-2.1-3.3-4.6-7-5.8-11.2
	c-1.4-4.7-0.9-9.4,1.4-12.7c1.8-2.7,4.6-4.5,6.9-5.9c7.3-4.6,14.6-9,23.2-13.7c0.5-0.3,1.1-0.1,1.4,0.4c0.3,0.5,0.1,1.1-0.4,1.4
	c0,0,0,0,0,0c-8.6,4.7-15.8,9.2-23.1,13.7c-2.1,1.3-4.7,2.9-6.3,5.3c-1.9,2.9-2.3,6.9-1.1,11.1c1.1,3.9,3.5,7.5,5.5,10.6
	c2.4,3.7,4.9,7.2,8.5,8.5c4.9,1.8,10.3-0.8,15.3-3.6c3.2-1.8,6.1-3.4,8.9-5s5.7-3.3,8.9-5c0.5-0.3,1.1-0.1,1.4,0.4
	c0.3,0.5,0.1,1.1-0.4,1.4c0,0,0,0,0,0c-3.2,1.8-6.1,3.4-8.9,5c-2.8,1.6-5.7,3.3-8.9,5C141.3,208.9,137.2,210.9,133.1,211.2z"/>
<path class="st8" d="M198.4,254.9c-5.4,0.4-10.4-3.5-12.5-5.4c-4-3.7-7.3-8.1-10.5-12.4c-0.7-1-1.5-1.9-2.2-2.9
	c-7.8-10.3-16.6-19.7-26.4-28.1c-0.4-0.4-0.5-1-0.1-1.4c0,0,0,0,0,0c0.4-0.4,1-0.5,1.5-0.1c9.9,8.5,18.8,18.1,26.7,28.4
	c0.7,1,1.5,1.9,2.2,2.9c3.1,4.2,6.4,8.6,10.3,12.1c2.2,2,7.9,6.5,13.3,4.4c4.8-1.9,6.4-8.6,4.6-13.3c-1.6-4.2-4.8-6.3-9.2-9.2
	c-0.8-0.5-1.7-1.1-2.6-1.7l-0.3-0.2c-6.7-4.5-13.8-10.7-21-18.2c-1.9-2-3.8-5.1-5.8-8.5c-1.1-1.8-2.2-3.7-3.3-5.4
	c-0.3-0.5-0.2-1.1,0.3-1.4c0,0,0,0,0,0c0.5-0.3,1.1-0.2,1.4,0.3c0,0,0,0,0,0c1.1,1.7,2.3,3.6,3.4,5.5c1.9,3.2,3.8,6.3,5.5,8.1
	c7.1,7.5,14.1,13.5,20.7,18l0.3,0.2c0.9,0.6,1.8,1.2,2.6,1.7c4.5,3,8.1,5.3,9.9,10.2c2.1,5.6,0.2,13.5-5.8,15.9
	C200.4,254.7,199.4,254.9,198.4,254.9z"/>
<path class="st8" d="M172.4,207.6c-0.3,0-0.5-0.1-0.7-0.2c-0.4-0.4-0.5-1-0.1-1.4c0,0,0,0,0-0.1l3.3-3.7c0.4-0.4,0.8-0.9,1.1-1.5
	c0.6-1.4,0.6-3-0.2-4.3c-0.8-1.5-1.8-2.8-3-4c-0.4-0.4-0.4-1,0-1.4c0,0,0,0,0.1,0c0.4-0.4,1.1-0.3,1.5,0.1c1.4,1.3,2.5,2.9,3.4,4.5
	c1,1.9,1,4.2,0.1,6.1c-0.4,0.7-0.9,1.3-1.5,1.9l-3.3,3.7C172.9,207.5,172.6,207.6,172.4,207.6z"/>
<path class="st8" d="M106.1,172c-0.5,0-1-0.2-1.2-0.6c-0.4-0.6-0.2-1.4,0.4-1.8c0,0,0,0,0,0c8.3-5,16.8-9.7,25.5-13.8
	c0.7-0.3,1.5-0.1,1.8,0.6c0.3,0.6,0.1,1.4-0.6,1.7c0,0,0,0,0,0c-8.6,4.1-17.1,8.7-25.3,13.7C106.6,171.9,106.3,172,106.1,172z"/>
<path class="st8" d="M112,182.3c-0.5,0-1-0.2-1.3-0.7c-0.3-0.6-0.1-1.4,0.5-1.7c8.5-4.4,17.2-8.7,25.9-12.8c0.7-0.3,1.5,0,1.8,0.6
	c0.3,0.6,0.1,1.4-0.6,1.7c0,0,0,0,0,0c-8.7,4.1-17.3,8.4-25.8,12.8C112.4,182.2,112.2,182.2,112,182.3z"/>
<path class="st8" d="M117.9,193.5c-0.5,0-1-0.2-1.2-0.6c-0.4-0.6-0.2-1.4,0.4-1.8c0,0,0,0,0,0c8.4-4.9,17-9.3,25.9-13.2
	c0.7-0.3,1.5,0,1.8,0.7c0.3,0.7,0,1.4-0.7,1.7c0,0,0,0,0,0c-8.8,3.9-17.3,8.3-25.6,13.1C118.3,193.4,118.1,193.5,117.9,193.5z"/>
<path class="st7" d="M245.1,116.6c-0.3,0-0.6-0.1-0.8-0.3c-0.4-0.4-0.5-1-0.1-1.4c0,0,0,0,0.1-0.1c5.8-6.3,9.5-14.4,10.4-22.9
	c0.1-0.6,0.6-0.9,1.2-0.9c0.5,0.1,0.9,0.5,0.9,1.1c-0.9,9-4.8,17.4-10.9,24.1C245.6,116.5,245.4,116.6,245.1,116.6z"/>
<path class="st7" d="M252.1,124.6c-0.3,0-0.7-0.1-0.9-0.4c-0.4-0.4-0.3-1.1,0.1-1.4c0,0,0,0,0.1,0c4.7-3.5,9.8-6.6,15.1-9.1
	c0.5-0.2,1.1,0,1.4,0.5c0.2,0.5,0,1.1-0.5,1.3c0,0,0,0,0,0c-5.2,2.4-10.1,5.4-14.7,8.9C252.5,124.4,252.3,124.5,252.1,124.6z"/>
<path class="st7" d="M280.7,136.9c-0.2,0-0.3,0-0.5-0.1c-7.5-3-15.7-4-23.7-3c-0.6,0.1-1.1-0.3-1.2-0.9c-0.1-0.6,0.3-1.1,0.9-1.1
	c8.4-1,16.9,0,24.7,3.1c0.5,0.2,0.8,0.8,0.6,1.3c0,0,0,0,0,0C281.4,136.6,281,136.8,280.7,136.9z"/>
<path class="st8" d="M221.2,170.1c-0.1,0-0.2,0-0.3-0.2l-8.4-13.2c-0.1-0.2-0.1-0.4,0.1-0.5c0,0,0,0,0,0c0.2-0.1,0.4-0.1,0.5,0.1
	c0,0,0,0,0,0l8.4,13.2c0.1,0.2,0.1,0.4-0.1,0.5c0,0,0,0,0,0C221.3,170,221.2,170.1,221.2,170.1z"/>
<path class="st8" d="M225.5,156.7c-0.2,0-0.3-0.1-0.4-0.2l-5.5-8.5c-0.1-0.2-0.1-0.5,0.1-0.6c0,0,0,0,0,0c0.2-0.1,0.5-0.1,0.6,0.1
	l5.5,8.5c0.1,0.2,0.1,0.5-0.1,0.6c0,0,0,0,0,0C225.7,156.6,225.6,156.6,225.5,156.7z"/>
<path class="st8" d="M216.5,160.7c-0.2,0-0.3-0.1-0.4-0.2l-4.2-6.4c-0.1-0.2-0.1-0.5,0.1-0.6c0,0,0,0,0,0c0.2-0.1,0.5-0.1,0.6,0.1
	l4.2,6.4c0.1,0.2,0.1,0.5-0.1,0.6c0,0,0,0,0,0C216.7,160.7,216.6,160.7,216.5,160.7z"/>
<path class="st8" d="M206.5,163.5c-0.2,0-0.3-0.1-0.4-0.2l-3.1-4.9c-0.1-0.2-0.1-0.5,0.2-0.6c0.2-0.1,0.5-0.1,0.6,0.1c0,0,0,0,0,0
	l3.1,4.9c0.1,0.2,0.1,0.5-0.1,0.6c0,0,0,0,0,0C206.6,163.5,206.6,163.5,206.5,163.5z"/>
<g class="st10">
	<path class="st8" d="M247.5,135.4c-0.4-0.9-1.4-1.3-2.4-1c-0.2,0.1-0.4,0.2-0.6,0.4c-0.5,0.5-0.5,1.2-0.8,1.8
		c-0.7,2.2-1.9,4.3-3.5,6c-1.5,1.6-1.2,0.7-2.5,2.3c-1.4,2.3,1.7,4.7,3.7,2.8c3.5-2.7,4.2-5.3,5.5-8.4c0.3-0.9,0.5-1.9,0.6-2.8
		C247.7,136.1,247.7,135.7,247.5,135.4z"/>
</g>
<g class="st10">
	<path class="st8" d="M249.3,168.6c-3.3-1.1-6.8-0.5-10.2-0.6c-7.9,0.3-15.7,1.4-23.3,3.1c-3.4,1-6.8,1.5-10.3,2.1
		c-2.9,0.6-5.8,1.5-8.6,2.5c-8.4,2.9-17.1,5.1-25.3,8.6c-8.6,3.7-16.6,8.6-24.6,13.5c-5.2,3.2-8.4,5.4-13.4,6.5
		c-2.4,0.6-3.4,0.4-6.9,0.3c-1.1-0.2-2.5,0.1-3,1.3c-0.4,1.1,0.1,2.4,1.3,2.8c0.2,0.1,0.5,0.1,0.7,0.1c2.6,0.2,5.2,0.8,7.8,0.4
		c5.9-0.6,10.8-4.1,15.8-6.9l1.5-0.8c-0.7,0.5-1.5,1-2.2,1.5c-1.4,0.7-2.3,2.5-1.2,3.9c0.6,0.7,1.5,1.1,2.4,0.9
		c0.6,0.4,1.5,0.4,2.1,0.1c1.3-0.8,2.7-1.5,4.1-2.1c1.1-0.5,2.2-0.8,3.4-0.9c0.4,0,0.7,0,1.1,0c0.7,0.1,1.4,0.3,2.1,0.7
		c0.4,0.2,0.8,0.5,1.2,0.8c1.8,1.6,3.8,3.1,5.6,4.7c0.9,0.9,1.9,1.8,3,2.6c0.6,0.4,1.2,0.8,1.8,1.2l0.4,0.3c0.7,0.6,1.5,1.2,2.3,1.7
		c1.1,0.8,2.2,1.7,3.2,2.4c0.1,0,1.7,1.3,2.7,2c0.8,0.7,2,1.2,2.9,0.5c0.5-0.4,0.8-1,0.7-1.7c-0.2-0.2-0.5-0.3-0.7-0.5
		c-1-0.7-2-1.5-3-2.3c-2-1.5-3.9-3.2-5.6-4.9c-3.5-3.5-6.7-7.4-9.3-11.6c-0.2-0.4-0.2-0.8,0.1-1.1c-0.4-0.5-0.7-0.9-1-1.3
		c2.8-1.1,3.2-1.5,6.2-2h0c1.3,0.3,2.6-0.4,3-1.6c0.6-2.1-1.9-3.8-3.7-2.6l0,0l-0.3,0.1c-0.7,0.2-1.5,0.4-2.2,0.6
		c2.4-1.1,4.5-2.1,5.3-2.4c6.8-2.6,12.1-4.5,19.8-6.9c4.9-1.6,6.6-2.6,10.6-3.8c5.6-1.4,11-3.1,16.7-4.2c1.8-0.4,3.6-0.7,5.4-1
		c1.5-0.3,1.6-0.1,2.3-0.4c0.5-0.2,0.8-0.5,1-1c0,0,0-0.1,0.1-0.1c3.6-0.5,7.2-0.8,10.8-0.7c3.4,0,4.8-0.3,7.3,0.6l0.3,0.1
		c0,0,0.1,0.1,0.2,0.1c0.9,0.4,2.1,0.1,2.6-0.8C253.2,170.2,251.1,169.1,249.3,168.6z M164.3,195.9c-0.2-0.1-0.3-0.1-0.5-0.2
		l0.6-0.3C164.4,195.6,164.3,195.7,164.3,195.9z"/>
</g>
<path class="st7" d="M1698.8,143L1698.8,143c-0.2-6.2,4.6-11.3,10.8-11.5c0,0,0,0,0,0l29.7-0.9l-0.3-10.6l-30.6,1
	c-12,0.4-21.5,10.4-21.1,22.4c0,0,0,0,0,0l0,0c0.4,12,10.4,21.4,22.4,21.1c0,0,0,0,0,0l30.6-1l-0.3-10.6l-29.7,0.9
	C1704.2,153.9,1699.1,149.1,1698.8,143z"/>
<path class="st8" d="M1696.9,161.2c-10.3-6.8-13.1-20.5-6.3-30.8c4-6,10.6-9.8,17.9-10l30.6-0.9c0.3,0,0.5,0.2,0.5,0.5l0.3,10.6
	c0,0.2-0.2,0.5-0.4,0.5c0,0,0,0,0,0l-29.7,0.9c-5.9,0.3-10.4,5.4-10.1,11.3c0.3,5.7,5.1,10.1,10.8,10.1l29.7-0.9
	c0.1,0,0.2,0,0.3,0.1c0.1,0.1,0.1,0.2,0.2,0.3l0.3,10.6c0,0.2-0.2,0.5-0.4,0.5c0,0,0,0,0,0l-30.6,0.9
	C1705.3,165,1700.7,163.7,1696.9,161.2z M1738.6,120.3l-30.2,0.9c-11.8,0.6-20.8,10.6-20.2,22.3c0.6,11.5,10.1,20.5,21.6,20.3
	l30.2-0.9l-0.3-9.7l-29.2,0.9c-6.4,0.2-11.8-4.9-12-11.3c0,0,0,0,0,0l0,0c-0.2-6.4,4.9-11.8,11.3-12c0,0,0,0,0,0l29.2-0.9
	L1738.6,120.3z"/>
<rect x="1730.2" y="119.9" transform="matrix(0.9995 -3.245742e-02 3.245742e-02 0.9995 -3.1487 56.3691)" class="st9" width="9" height="10.6"/>
<path class="st8" d="M1730.1,131.1C1730.1,131.1,1730,131.1,1730.1,131.1c-0.2-0.1-0.2-0.2-0.2-0.3l-0.3-10.6c0-0.3,0.2-0.5,0.5-0.5
	l9-0.3c0.3,0,0.5,0.2,0.5,0.5l0.3,10.6c0,0.2-0.2,0.5-0.4,0.5c0,0,0,0,0,0l-9,0.3C1730.3,131.3,1730.2,131.2,1730.1,131.1z
	 M1730.5,120.6l0.3,9.7l8.1-0.3l-0.3-9.7L1730.5,120.6z"/>
<rect x="1731.2" y="152.8" transform="matrix(0.9995 -3.245742e-02 3.245742e-02 0.9995 -4.2173 56.4212)" class="st9" width="9" height="10.6"/>
<path class="st8" d="M1731.2,164.1c-0.1-0.1-0.2-0.2-0.2-0.4l-0.3-10.6c0-0.3,0.2-0.5,0.5-0.5l9-0.3c0.3,0,0.5,0.2,0.5,0.5l0.3,10.6
	c0,0.2-0.2,0.5-0.4,0.5c0,0,0,0,0,0l-9,0.3C1731.3,164.1,1731.2,164.1,1731.2,164.1z M1731.5,153.5l0.3,9.7l8.1-0.3l-0.3-9.7
	L1731.5,153.5z"/>
<path class="st8" d="M1687.1,144.3c-0.2-0.1-0.3-0.4-0.1-0.6c0.1-0.1,0.2-0.2,0.4-0.2l11.5-0.4c0.3,0,0.5,0.2,0.5,0.4c0,0,0,0,0,0
	c0,0.3-0.2,0.5-0.4,0.5c0,0,0,0,0,0l-11.5,0.4C1687.3,144.3,1687.2,144.3,1687.1,144.3z"/>
<path class="st8" d="M1690.3,135L1690.3,135c-0.1-0.1-0.1-0.2,0-0.2c0,0,0,0,0,0l17.4-12.5c0.1-0.1,0.2-0.1,0.2,0c0,0,0,0,0,0
	c0.1,0.1,0.1,0.2,0,0.2c0,0,0,0,0,0l-17.4,12.5C1690.4,135.1,1690.3,135.1,1690.3,135z"/>
<path class="st8" d="M1689.2,138.3L1689.2,138.3c-0.1-0.1-0.1-0.2,0-0.2c0,0,0,0,0,0l22.1-15.8c0.1-0.1,0.2-0.1,0.2,0
	c0.1,0.1,0.1,0.2,0,0.2c0,0,0,0,0,0l-22.1,15.8C1689.4,138.3,1689.3,138.3,1689.2,138.3z"/>
<path class="st8" d="M1689,141.2L1689,141.2c-0.1-0.1-0.1-0.2,0-0.2c0,0,0,0,0,0l26.1-18.7c0.1-0.1,0.2-0.1,0.2,0c0,0,0,0,0,0
	c0.1,0.1,0.1,0.1,0,0.2l-26.1,18.8C1689.2,141.2,1689.1,141.2,1689,141.2z"/>
<path class="st8" d="M1690.9,142.4L1690.9,142.4c-0.1-0.1-0.1-0.1,0-0.2l7.7-5.4c0.1-0.1,0.2-0.1,0.2,0c0.1,0.1,0.1,0.2,0,0.2
	l-7.7,5.4C1691.1,142.5,1691,142.5,1690.9,142.4z"/>
<path class="st8" d="M1694.6,142.3L1694.6,142.3c-0.1-0.1-0.1-0.2,0-0.2c0,0,0,0,0,0l2.6-1.8c0.1-0.1,0.2-0.1,0.2,0
	c0.1,0.1,0.1,0.2,0,0.2c0,0,0,0,0,0l-2.6,1.8C1694.8,142.3,1694.7,142.4,1694.6,142.3C1694.7,142.3,1694.6,142.3,1694.6,142.3z"/>
<path class="st8" d="M1693.3,130.3L1693.3,130.3c-0.1-0.1-0.1-0.2,0-0.2c0,0,0,0,0,0l8.9-6.4c0.1-0.1,0.2-0.1,0.2,0c0,0,0,0,0,0
	c0.1,0.1,0.1,0.1,0,0.2c0,0,0,0,0,0l-8.9,6.4C1693.5,130.3,1693.4,130.3,1693.3,130.3z"/>
<path class="st8" d="M1708.6,130.1L1708.6,130.1c-0.1-0.1-0.1-0.2,0-0.2c3.5-2.8,7.1-5.5,10.7-8c0.1-0.1,0.2-0.1,0.2,0c0,0,0,0,0,0
	c0.1,0.1,0.1,0.2,0,0.2c0,0,0,0,0,0c-3.6,2.6-7.2,5.3-10.7,8C1708.8,130.1,1708.7,130.1,1708.6,130.1z"/>
<path class="st8" d="M1712.4,130L1712.4,130c-0.1-0.1-0.1-0.2,0-0.2c0,0,0,0,0,0l10.2-8c0.1-0.1,0.2,0,0.2,0c0.1,0.1,0,0.2,0,0.2
	l0,0l-10.2,8C1712.6,130.1,1712.5,130,1712.4,130z"/>
<path class="st8" d="M1716.1,129.9L1716.1,129.9c-0.1-0.1-0.1-0.1,0-0.2c0,0,0,0,0,0l10.4-8c0.1-0.1,0.2-0.1,0.2,0c0,0,0,0,0,0
	c0.1,0.1,0.1,0.1,0,0.2c0,0,0,0,0,0l-10.4,8C1716.3,129.9,1716.2,129.9,1716.1,129.9C1716.1,129.9,1716.1,129.9,1716.1,129.9z"/>
<path class="st8" d="M1719.9,129.7L1719.9,129.7c-0.1-0.1-0.1-0.2,0-0.2c0,0,0,0,0,0c2.7-2.2,5.6-4.4,8.4-6.5c0.1,0,0.2,0,0.2,0.1
	c0,0.1,0,0.1,0,0.2c-2.8,2.1-5.7,4.2-8.4,6.5C1720.1,129.8,1720,129.8,1719.9,129.7z"/>
<path class="st8" d="M1723.8,129.8L1723.8,129.8c-0.1-0.1-0.1-0.2,0-0.2c0,0,0,0,0,0c1.5-1.2,3-2.5,4.6-3.6c0.1-0.1,0.2-0.1,0.2,0
	c0.1,0.1,0.1,0.2,0,0.2c0,0,0,0,0,0c-1.6,1.2-3.1,2.4-4.6,3.6C1723.9,129.8,1723.8,129.9,1723.8,129.8
	C1723.8,129.8,1723.8,129.8,1723.8,129.8z"/>
<path class="st8" d="M1727,129.6L1727,129.6c-0.1-0.1-0.1-0.2,0-0.2c0,0,0,0,0,0l1.3-0.9c0.1,0,0.2,0,0.2,0c0,0.1,0,0.2,0,0.2
	l-1.3,0.9C1727.1,129.7,1727,129.7,1727,129.6z"/>
<g class="st10">
	<path class="st8" d="M1739.1,163.7c0.7,0.2,1.4-0.2,1.6-0.9c0.1-0.2,0.1-0.4,0-0.6c-0.2-0.7-0.9-1.1-1.6-1c-0.1,0-0.2,0.1-0.3,0.1
		c-0.6,0.1-0.7,0.1-0.9,0.1c-1.6,0.1-3.1,0-4.7,0c-4.2,0-8.6,0.2-11.3,0.4c-4.1,0.4-8.2,0.5-12.3,0.3c-3.4-0.2-6.6-1-9.7-2.4
		c-0.3-0.2-0.7-0.3-1-0.6c-0.9-0.6-1.8-1.2-2.6-1.9c-0.7-0.5-1.4-1.1-2.2-1.6c-0.2-0.2-0.5-0.3-0.8-0.4c-0.6-0.1-1.2,0.3-1.3,0.9
		c-0.1,0.4,0.1,0.8,0.5,1.1c2.1,1.4,4,3.1,6.1,4.5c1.7,0.9,3.5,1.6,5.4,2c5.4,1.4,10.9,1,16.4,0.6c2.8-0.2,9.8-0.4,12.6-0.6
		c1.9-0.2,3.8-0.2,5.7-0.2h0.3l0,0L1739.1,163.7z"/>
</g>
<g class="st11">
	<path class="st7" d="M586.6,174.5h-76.7c-5.7,0-10.4-4.6-10.4-10.4v-35.1c0-5.7,4.6-10.4,10.4-10.4l0,0h76.7
		c5.7,0,10.4,4.6,10.4,10.4l0,0v35C597,169.8,592.4,174.5,586.6,174.5C586.6,174.5,586.6,174.5,586.6,174.5z M509.9,119.5
		c-5.3,0-9.6,4.3-9.6,9.6v35c0,5.3,4.3,9.6,9.6,9.6h76.7c5.3,0,9.6-4.3,9.6-9.6v-35c0-5.3-4.3-9.6-9.6-9.6H509.9z"/>
	<path class="st7" d="M550.8,132h-37c-0.2,0-0.4-0.2-0.4-0.4l0,0c0-0.2,0.2-0.4,0.4-0.4l0,0h37c0.2,0,0.4,0.2,0.4,0.4v0
		C551.2,131.8,551,132,550.8,132z"/>
	<path class="st7" d="M543.2,141.3h-29.4c-0.2,0-0.4-0.2-0.4-0.4c0,0,0,0,0,0c0-0.2,0.2-0.4,0.4-0.4l0,0h29.4c0.2,0,0.4,0.2,0.4,0.4
		c0,0,0,0,0,0C543.6,141.1,543.4,141.3,543.2,141.3z"/>
	<path class="st7" d="M555.6,150.5h-41.8c-0.2,0-0.4-0.2-0.4-0.4c0-0.2,0.2-0.4,0.4-0.4c0,0,0,0,0,0h41.8c0.2,0,0.4,0.2,0.4,0.4
		C556,150.3,555.8,150.5,555.6,150.5L555.6,150.5z"/>
	<path class="st7" d="M543.2,159.8h-29.4c-0.2,0-0.4-0.2-0.4-0.4c0-0.2,0.2-0.4,0.4-0.4h29.4c0.2,0,0.4,0.2,0.4,0.4
		S543.4,159.8,543.2,159.8C543.2,159.8,543.2,159.8,543.2,159.8L543.2,159.8z"/>
	<path class="st7" d="M582.7,159.8h-27.1c-0.2,0-0.4-0.2-0.4-0.4c0-0.2,0.2-0.4,0.4-0.4h27.1c0.2,0,0.4,0.2,0.4,0.4
		S583,159.8,582.7,159.8C582.7,159.8,582.7,159.8,582.7,159.8z"/>
	<path class="st7" d="M582.7,150.5H567c-0.2,0-0.4-0.2-0.4-0.4c0-0.2,0.2-0.4,0.4-0.4h15.7c0.2,0,0.4,0.2,0.4,0.4
		C583.2,150.3,583,150.5,582.7,150.5z"/>
	<path class="st7" d="M582.7,141.3h-27.1c-0.2,0-0.4-0.2-0.4-0.4c0,0,0,0,0,0c0-0.2,0.2-0.4,0.4-0.4l0,0h27.1c0.2,0,0.4,0.2,0.4,0.4
		c0,0,0,0,0,0C583.2,141.1,583,141.3,582.7,141.3L582.7,141.3z"/>
	<path class="st7" d="M582.7,132h-21.2c-0.2,0-0.4-0.2-0.4-0.4l0,0c0-0.2,0.2-0.4,0.4-0.4l0,0h21.2c0.2,0,0.4,0.2,0.4,0.4v0
		C583.2,131.8,583,132,582.7,132L582.7,132z"/>
</g>
<circle class="st7" cx="504" cy="121.3" r="18.5"/>
<path class="st8" d="M503.3,141.3c-10.4,0-18.9-8.4-18.9-18.9s8.4-18.9,18.9-18.9s18.9,8.4,18.9,18.9S513.7,141.3,503.3,141.3z
	 M503.3,104.4c-9.9,0-18,8.1-18,18s8.1,18,18,18s18-8.1,18-18c0,0,0,0,0,0C521.3,112.5,513.2,104.4,503.3,104.4L503.3,104.4z"/>
<path class="st7" d="M496.2,126.6c1-0.9,2.4-0.8,3.3,0.1c0.9,1,0.8,2.4-0.1,3.3c-0.9,0.9-2.3,0.9-3.2,0
	C495.2,129.1,495.2,127.6,496.2,126.6z"/>
<path class="st8" d="M497.8,131.1c-0.7,0-1.4-0.2-1.9-0.7c-1.1-1.1-1.1-2.9,0-4c0,0,0,0,0,0l0,0c0.8-1.3,2.6-1.7,3.9-0.9
	c1.3,0.8,1.7,2.6,0.9,3.9c-0.2,0.3-0.4,0.5-0.7,0.7C499.4,130.8,498.6,131.1,497.8,131.1z M496.5,126.9L496.5,126.9
	c-0.7,0.8-0.5,2.1,0.3,2.7c0.8,0.7,2.1,0.5,2.7-0.3c0.6-0.8,0.6-2-0.2-2.6C498.5,126,497.2,126.1,496.5,126.9L496.5,126.9z"/>
<path class="st9" d="M512,115.7c0.9-0.8,0.9-2.2,0.1-3.1c-0.8-0.9-2.2-0.9-3.1-0.1c-0.1,0.1-0.1,0.1-0.2,0.2l-1,1.1
	c-1.9-1.6-4.7-1.4-6.3,0.4l-5.3,5.7l-5.5,1.4l14.1,13.1l1-5.7l5.3-5.7c1.7-1.8,1.7-4.6-0.1-6.3L512,115.7z"/>
<path class="st8" d="M504.7,135c-0.1,0-0.2,0-0.3-0.1l-14.1-13c-0.1-0.1-0.2-0.3-0.1-0.4c0-0.2,0.2-0.3,0.3-0.3l5.4-1.4l5.2-5.7
	c1.7-1.9,4.5-2.2,6.6-0.7l0.8-0.8c0.5-0.5,1.2-0.9,1.9-0.9c1.4-0.1,2.6,0.9,2.7,2.3c0,0.1,0,0.2,0,0.2c0,0.7-0.3,1.4-0.8,1.9l0,0
	l-0.8,0.8c0.8,0.8,1.2,1.9,1.2,3.1c0,1.3-0.5,2.6-1.4,3.5l-5.2,5.7l-0.9,5.5c0,0.2-0.1,0.3-0.3,0.3C504.9,135,504.8,135,504.7,135z
	 M491.5,121.8l12.9,12l0.8-4.8c0-0.1,0-0.2,0.1-0.2l5.3-5.7c0.8-0.8,1.2-1.9,1.2-3c0-1-0.4-2-1.2-2.8c-0.2-0.2-0.2-0.4,0-0.6l1-1.1
	c0.3-0.4,0.5-0.8,0.5-1.3c0-0.9-0.7-1.7-1.6-1.7c-0.1,0-0.1,0-0.2,0c-0.5,0-1,0.3-1.3,0.6l-1,1.1c-0.1,0.1-0.2,0.1-0.3,0.1
	c-0.1,0-0.2,0-0.3-0.1c-1.7-1.4-4.2-1.2-5.7,0.4l-5.3,5.7c-0.1,0.1-0.1,0.1-0.2,0.1L491.5,121.8z M512,115.7L512,115.7z"/>
<g class="st10">
	<path class="st8" d="M513.8,138.1c1.4-1.4,2.7-2.8,4.1-4.2l0.2-0.2c0.3-0.6,0.7-1.3,1.1-1.9c0.4-0.9,0.9-1.8,1.3-2.7
		c-0.3,0.3-0.5,0.6-0.7,0.9c-0.1,0.1-0.4,0.6-0.6,0.8c-1.1,1.3-2.3,2.5-3.6,3.6c-1.5,1.2-3.1,2.2-4.9,2.9c-1.3,0.4-2.7,0.6-4,0.6
		c-1.7,0.2-3.4,0.3-5.2,0.2c-2.6-0.2-5.2-0.9-7.5-2.1c-1.2-0.7-2.4-1.2-3.5-1.9c-0.8-0.5-1.5-1.1-2.1-1.6c-0.6-0.6-1-1.2-1.4-1.9
		c-0.2-0.3-0.4-0.7-0.8-0.8c-0.1,0-0.3,0-0.4,0c0.6,1,1.2,2,1.9,3c0.9,1.1,1.9,2.1,2.9,3.1c0.5,0.5,1,0.9,1.5,1.5
		c1.9,1.1,3.9,2,6.1,2.5c2.5,0.5,5,0.6,7.5,0.3c1.4,0,2.7-0.2,4.1-0.4C511.2,139.5,512.6,138.9,513.8,138.1L513.8,138.1z"/>
</g>
<g class="st10">
	<path class="st8" d="M596,170.2c0-0.1,0-0.1,0.1-0.2l0,0c0.2-0.4,0-0.9-0.5-1.1c0,0-0.1,0-0.1,0c-0.8-0.2-1.1,0.6-1.4,1.1
		c-0.3,0.6-0.7,1.3-1.2,1.8c-1.5,1.7-3.2,2.1-5.9,2.7c-1.1,0.2-2.3,0.4-3.4,0.4c-1.5,0-3,0-4.4,0c-4.4-0.1-8.8-0.2-13.2-0.2
		c-3.5-0.1-6.9-0.1-10.4,0c-4-0.1-8-0.1-12-0.1c-2.7,0-5.5,0-8.2,0c-2.3,0.1-4.7,0.1-7-0.2c-1.6-0.2-3.1-0.3-4.7-0.3
		c-2.1,0-4.1,0.3-6.2,0.3s-4.1-0.2-6.1-0.4h-0.1c-0.3,0-0.7-0.1-1-0.2c-0.6-0.1-1.1-0.2-1.7-0.4c-0.3-0.1-0.6-0.1-0.9-0.1
		c-0.5,0-1,0.4-1,0.9c0,0.5,0.4,1,0.9,1c3.5,0.9,6.3,1,10.2,1.3c2.1,0,4.3-0.2,6.4-0.2c2.1,0,4.3,0.3,6.5,0.5c6.4,0.1,12.9,0,19.3,0
		c3.6,0.1,7.1,0.1,10.7,0c3.3,0.1,6.5,0.1,9.7,0.1c4.2,0.1,8.5,0.2,12.7,0.1c2.9-0.1,5.8-0.8,8.5-2c2-1,3.6-2.8,4.5-4.9
		C596,170.3,596,170.3,596,170.2C596.1,170.2,596,170.2,596,170.2z"/>
</g>
</svg>
