<svg id="Layer_1" data-name="Layer 1" xmlns="http://www.w3.org/2000/svg" viewBox="0 0 300 300"><defs><style>.cls-1{fill:#3a3c37;}.cls-2{fill:#f8d70a;}</style></defs><title>icon_mission</title><path class="cls-1" d="M196,203.26A100.29,100.29,0,0,1,125,32a100.34,100.34,0,1,1,141.9,141.9,99.73,99.73,0,0,1-71,29.34ZM196,10.1a92.87,92.87,0,0,0-65.7,158.57,92.91,92.91,0,1,0,131.4-131.4A92.24,92.24,0,0,0,196,10.1Z"/><path class="cls-1" d="M262.52,66a3.69,3.69,0,0,1-3.17-1.77A75.17,75.17,0,0,0,255.1,58a3.7,3.7,0,0,1,.7-5.2,3.72,3.72,0,0,1,5.2.69c1.66,2.19,3.24,4.49,4.68,6.83a3.74,3.74,0,0,1,.44,2.81,3.72,3.72,0,0,1-3.6,2.84Z"/><path class="cls-1" d="M239.54,42a3.73,3.73,0,0,1-2.07-.63,73.18,73.18,0,0,0-10.59-6A3.71,3.71,0,1,1,230,28.66a81.21,81.21,0,0,1,11.66,6.55,3.68,3.68,0,0,1,1.57,2.36A3.71,3.71,0,0,1,239.54,42Z"/><path class="cls-1" d="M203.87,29.1a2.17,2.17,0,0,1-.36,0,75.18,75.18,0,0,0-7.53-.37,3.71,3.71,0,1,1,0-7.42,81,81,0,0,1,8.26.42,3.63,3.63,0,0,1,2.5,1.34,3.7,3.7,0,0,1-2.87,6.05Z"/><path class="cls-1" d="M196,184.62a81.67,81.67,0,1,1,0-163.33,3.71,3.71,0,1,1,0,7.42,74.25,74.25,0,1,0,63.37,35.5,3.71,3.71,0,0,1,1.23-5.1,3.7,3.7,0,0,1,5.1,1.22A81.66,81.66,0,0,1,196,184.62Z"/><path class="cls-1" d="M48.67,276.08A3.68,3.68,0,0,1,46.05,275L24,252.9a3.68,3.68,0,0,1-1.09-2.62A3.73,3.73,0,0,1,24,247.65l15.57-15.57A3.68,3.68,0,0,1,42.15,231a3.69,3.69,0,0,1,3.71,3.71,3.68,3.68,0,0,1-1.08,2.62l-13,12.95,16.84,16.84L115.82,200,99,183.13l-40.7,40.71A3.71,3.71,0,1,1,53,218.59l43.32-43.33A3.68,3.68,0,0,1,99,174.18a3.72,3.72,0,0,1,2.63,1.08l22.09,22.09a3.73,3.73,0,0,1,0,5.25L51.29,275A3.68,3.68,0,0,1,48.67,276.08Z"/><path class="cls-1" d="M39.73,297.2A10.93,10.93,0,0,1,32,294L5,267a11,11,0,0,1,0-15.55l6.24-6.23a11,11,0,0,1,15.55,0l27,27a11,11,0,0,1,0,15.54L47.5,294A10.93,10.93,0,0,1,39.73,297.2ZM19,249.42a3.57,3.57,0,0,0-2.53,1l-6.23,6.24a3.58,3.58,0,0,0,0,5.06l27,27a3.56,3.56,0,0,0,5,0l6.24-6.24a3.57,3.57,0,0,0,0-5.06l-27-27A3.57,3.57,0,0,0,19,249.42Z"/><path class="cls-1" d="M131.57,210.2a13.29,13.29,0,0,1-9.43-3.9L92.65,176.81a13.36,13.36,0,0,1,0-18.87L107,143.59a3.76,3.76,0,0,1,2.62-1.09,3.92,3.92,0,0,1,.59.05,3.72,3.72,0,0,1,2.73,2A92,92,0,0,0,154.4,186a3.71,3.71,0,0,1,1,5.94L141,206.3A13.29,13.29,0,0,1,131.57,210.2Zm-33.67-47a5.92,5.92,0,0,0,0,8.37l29.49,29.49a5.84,5.84,0,0,0,4.18,1.73h0a5.87,5.87,0,0,0,4.19-1.73l10.8-10.8-1.37-.8a98.9,98.9,0,0,1-35.69-35.69l-.8-1.37Z"/><path class="cls-1" d="M174.45,126.66a3.72,3.72,0,0,1-3.71-3.71v-4.36c0-10.43-2.31-21.52-6.88-33a34.55,34.55,0,0,1,28.19-47.14,33.52,33.52,0,0,1,3.88-.22,34.57,34.57,0,0,1,31.81,48.24c-4.33,10-6.52,21.65-6.52,34.56V123a3.71,3.71,0,0,1-3.71,3.71Zm21.55-81a27.78,27.78,0,0,0-3.14.17,27.14,27.14,0,0,0-22.11,37c4.83,12.11,7.33,23.93,7.41,35.14v1.22h35.64l0-1.19a92.5,92.5,0,0,1,7.09-34.48,26.81,26.81,0,0,0,2.21-10.73,27.21,27.21,0,0,0-9-20.24A26.75,26.75,0,0,0,196,45.69Z"/><path class="cls-1" d="M196,167.67a14.54,14.54,0,0,1-14.06-11.2l-.21-.91-.93,0a7.16,7.16,0,0,1-6.8-7.16v-4h-2.31a6.84,6.84,0,0,1-6.84-6.83V126.07a6.85,6.85,0,0,1,6.84-6.83H220.3a6.85,6.85,0,0,1,6.83,6.83v11.48a6.84,6.84,0,0,1-6.83,6.83H218v4a7.16,7.16,0,0,1-6.8,7.16l-.93,0-.2.91A14.55,14.55,0,0,1,196,167.67ZM172.25,137h8.89a3.71,3.71,0,0,1,1.12,7.25l-.86.27v3.63h3.87a3.71,3.71,0,0,1,3.7,3.71v1.43a7,7,0,0,0,14,0v-1.43a3.71,3.71,0,0,1,3.71-3.71h3.86v-3.63l-.86-.27a3.71,3.71,0,0,1,1.12-7.25h8.89v-10.3H172.25Z"/><path class="cls-1" d="M196,126.66a3.72,3.72,0,0,1-3.71-3.71V100a3.71,3.71,0,1,1,7.42,0v23A3.71,3.71,0,0,1,196,126.66Z"/><path class="cls-1" d="M196,103.65a12.71,12.71,0,1,1,12.71-12.71A12.72,12.72,0,0,1,196,103.65Zm0-18a5.3,5.3,0,1,0,5.3,5.29A5.29,5.29,0,0,0,196,85.65Z"/><path class="cls-2" d="M172.3,126.16v10.3h8.89a3.71,3.71,0,0,1,1.12,7.25l-.86.27v3.63h3.86a3.71,3.71,0,0,1,3.71,3.7v1.44a7,7,0,0,0,14,0v-1.44a3.71,3.71,0,0,1,3.71-3.7h3.86V144l-.86-.27a3.71,3.71,0,0,1,1.12-7.25h8.89v-10.3H172.3Z"/><path class="cls-2" d="M192.32,102.6a12.71,12.71,0,1,1,7.42,0v16.14h14.12l0-1.19A92.5,92.5,0,0,1,221,83.07a27.19,27.19,0,0,0-6.85-31,26.68,26.68,0,0,0-18.08-6.91,27.65,27.65,0,0,0-3.14.17,27.16,27.16,0,0,0-22.12,37c4.84,12.1,7.33,23.93,7.42,35.14v1.22h14.11Z"/></svg>